<?xml version="1.0" encoding="utf-8"?>
<!-- Generator: Adobe Illustrator 25.2.3, SVG Export Plug-In . SVG Version: 6.00 Build 0)  -->
<svg version="1.1" id="Camada_1" xmlns="http://www.w3.org/2000/svg" xmlns:xlink="http://www.w3.org/1999/xlink" x="0px" y="0px"
	 viewBox="0 0 1259.3 560" style="enable-background:new 0 0 1259.3 560;" xml:space="preserve">
<style type="text/css">
	.st0{fill:#E6ECF2;stroke:#E6ECF2;stroke-width:15;stroke-miterlimit:10;}
	.st1{fill:#528D71;}
	.st2{fill:#BA3538;}
	.st3{fill:#FEFEFE;}
	.st4{fill:#FEFDFE;}
	.st5{fill:#727378;}
	.st6{fill:#09A9F3;}
	.st7{enable-background:new    ;}
	.st8{fill:#475059;}
	.st9{fill:#F76D00;}
</style>
<g>
	<path class="st0" d="M66.4,99.6c0.5,0.9,0.9,1.9,2.1,1.9c3.3,0.1,5.5,1.7,7.4,4.2c0.9,1.2,2.1,2,3,3.1c0.6,0.7,1.1,0.7,2.1,0.4
		c4.2-1.6,7.4-0.3,9.3,3.8c3.7,7.5,7.3,15.2,11,22.7c0.7,1.3,0.5,1.8-0.7,2.4c-2.7,1.4-5.4,2.8-8.1,4.3c-3,1.7-3.8,4-2.6,7.6
		c1.2,3.4,2.6,4.2,6.2,3.6c1.2-0.2,1.9,0.1,2.6,1.3c3.2,5.5,6.5,11,9.7,16.5c0.3,0.6,1.2,1.3,0.3,2.1c-3.8,3.5-3.5,7.2-0.2,11.3
		c-4.2,0-8,0.2-11.8-0.1c-2.6-0.2-3,0.8-3,3.1c0.1,82.7,0.1,165.3,0,248c0,2.2,0.5,4.3,1.4,6.2c3.7,7.5,9.7,11.2,18.1,11.2
		c30.1,0,60.2,0.1,90.3,0.1c1.3,0,2.2,0.1,3.1,1.1c7.5,8.9,15.2,17.7,22.6,26.7c1,1.2,1.2,0.8,1.9-0.1c1.3-1.7,2.7-3.4,4.1-5
		c5.2-6.1,10.2-12.2,15.6-18.1c1.6-1.8,2.5-4.7,5.8-4.7c27.1,0.1,54.2,0.1,81.3,0.1c4.2,0,8.4,0,12.6-0.3
		c7.9-0.6,15.9-8.7,15.9-16.6c0.1-29.1,0.1-58.2,0.1-87.3c0-54,0-108,0.1-162c0-2.1-0.7-2.4-2.5-2.3c-4.1,0.1-8.1,0-12.3,0
		c2.6-4.3,2.2-6.2-1.7-9c-1-0.7-1.2-1.2-0.5-2.4c3.4-5.7,6.6-11.4,9.9-17.1c0.8-1.3,1.1-4,3.7-1.8c0.3,0.2,1.2-0.2,1.7-0.5
		c3.9-2.3,6.9-7,1-11.1c-3-2.1-6.1-4-9.2-6c-1-0.6-1.5-1-0.7-2.4c4.5-7.7,8.8-15.6,13.1-23.4c0.7-1.2,1.7-1.9,2.9-2.6
		c2.7-1.8,5.2-0.6,7.8-0.1c1.8,0.4,3.1,0.3,3.9-1.6c1.1-2.5,3.1-4,5.4-5.5c2.1-1.3,4.6-2.2,5.9-4.5c4.9-8.9,9.8-17.9,14.8-26.8
		c0.7-1.2,0.5-1.6-0.7-2.2c-2.5-1.3-5-2.6-7.3-4.2c-2.1-1.4-2.9-1.1-4,1.2c-2.8,6.4-2.9,6.3-9,2.8c-1.1-0.6-1.2-1-0.7-2
		c0.9-1.8,1.5-3.8,2.3-5.6c0.7-1.6,0.6-2.3-1.3-3.1c-4.7-1.9-9.4-4-14-6.3c-1.5-0.7-2.1-0.5-2.7,1c-1.8,4.5-3.8,8.8-5.6,13.3
		c-2.9,7.4-8.1,14.2-7.1,22.8c0.2,1.4-0.9,1.3-1.6,0.8c-2.9-2.1-4-0.6-4.7,2.1c-0.3,1-0.9,1.9-1.2,3c-0.5,1.8-1.3,2-3,1.2
		s-2.5-1.5-1.3-3.4c0.8-1.3,1.2-2.8,1.9-4.1c0.8-1.6,0.7-2.6-1.3-3c-0.5-0.1-0.9-0.6-1.4-0.7c-2.4-0.7-1.8-1.5-0.3-2.7
		c1.6-1.2,3.4-2.3,4.2-4.4c4.2-10.2,8.4-20.4,12.7-30.6c-4.9-1.8-9.6-3.6-14.3-5.4c-1.4-0.6-2.1-0.5-2.5,1.1
		c-0.6,1.9-1.4,3.8-2.3,5.7c-0.2,0.5-0.1,1.4-1.3,1.3c-2.9-0.2-4.1-1.8-3.2-4.4c0.5-1.4,1-2.8,1.5-4.3c0.6-1.5,0.4-2.2-1.5-2.7
		c-6.3-1.6-12.6-3.5-18.9-5.3c-5.7-1.6-5.7-1.6-7,4.4c-0.5,2.1-1,3.3-3.7,2.3c-1.9-0.7-2.6-1-1.8-2.9c0.5-1.4,0.8-2.9,1.1-4.4
		c0.3-1.4-0.1-2.4-1.7-2.7c-4.5-0.9-8.9-1.8-13.4-2.7c-1.6-0.3-2.6,0.2-3,2c-1.1,6.6-2.5,13.1-3.6,19.7c-0.9,5.7-3.3,11.4-0.9,17.3
		c0.4,1,0,1.6-1.4,1.2c-2-0.5-4.6-1.4-6.1-0.6c-1.7,0.9-1.4,3.8-1.8,5.8c-0.1,0.7-0.6,2-0.9,2c-1.6,0-3.3,0-4.7-0.7
		c-0.8-0.4-0.4-2-0.1-3c1.3-5.9,1.4-5.9-4.6-6.6c-1.6-0.2-2.1-0.6-0.9-1.9c1.2-1.3,2.2-2.6,2.3-4.4c0.4-3.8,0.8-7.6,1.2-11.4
		c0.8-7,1.3-14.1,2.4-21c0.3-2.1-0.2-2.4-1.9-2.3c-4.8,0.1-9.6-0.3-14.3-1.1c-2.4-0.4-3.5,0.3-3.1,2.9c0.2,1.5,0,3.1,0,4.6
		c0,0.9-0.4,1.3-1.2,1.4c-4.4,0.6-5.3-0.1-5.4-4.4c0-5.2,0-5.2-5.5-5c-1.1,0.3-2.2,0.1-3.2,0.2c-5,0.1-9.9-0.2-14.9,0.2
		c-1.3,0-2.6,0-3.8,0c-5.4,0.1-5.4,0.1-5.4,5.6c0,3.7,0,3.8-3.7,3.7c-3.9,0-3.4,0.5-3.4-3.5c0-1.1-0.1-2.2-0.1-3.3
		c0.2-2.4-1.1-2.6-3.1-2.4c-4,0.4-8,0.8-12,1c-3.8,0.2-4,0.1-3.4,3.9c0.3,2,0.4,4,0.6,6c0.7,6.3,1.4,12.6,2.1,18.9
		c0.5,4.1,0.4,8.4,3.6,11.6c0.1,0.1,0,0.3,0,0.6c-1.1,0.2-2.2,0.6-3.4,0.7c-4.5,0.5-4.4,0.5-4,4.8c0.1,1,0,2,0.4,2.9
		c0.2,0.4,0.4,1.4-0.2,1.4c-1.7,0.2-3.4,1.2-5,0.6c-1.2-0.5-1.1-2.1-1.2-3.3c-0.5-5.8-0.5-5.8-6.1-4.6c-0.2,0-0.3,0.1-0.5,0.2
		c-1.4,0.3-2,0-1.6-1.6c0.3-1.6,1.2-3,0.8-4.9c-1.3-6.6-2.3-13.2-3.5-19.8c-0.7-4-1.4-8.1-2.3-12.1c-0.2-1-0.2-2.4-2.4-1.6
		c-2.5,1-5.4,1.2-8.1,1.8c-2.3,0.4-5.4,0.1-6.6,1.5c-1.5,1.7,0.1,4.7,0.9,6.9c1,2.8-0.8,2.7-2.3,3.2c-1.8,0.5-3.2,0.5-3.4-1.9
		c-0.2-1.7-0.7-3.3-1.1-5c-0.3-1.2-0.5-2-2.3-1.4c-7.4,2.4-14.9,4.5-22.4,6.7c-1.6,0.5-1.8,1.1-1.3,2.5c0.7,1.8,1.2,3.7,1.7,5.6
		c0.2,0.6,0.5,1.2-0.5,1.8c-3.1,1.7-4.2,1.4-5.4-1.9c-0.5-1.3-1.2-2.4-1.5-3.7c-0.4-1.7-1.1-1.6-2.5-1.1c-4.5,1.8-8.9,3.5-13.5,5.1
		c-1.5,0.5-1.9,1-1.2,2.7c3,7.3,5.5,14.7,8.5,22c1.8,4.2,2.4,9.1,6.6,12c1,0.7,0.5,1.4-0.3,1.5c-2.8,0.5-2.1,2-1.2,3.7
		c0.4,0.7,0.6,1.5,0.9,2.2c1.6,4,1.6,3.9-2.3,5.8c-1.4,0.7-1.8,0.2-2.3-0.9c-0.9-2-1.9-4-2.9-5.9c-0.3-0.5-0.7-1.6-1.2-1.2
		c-3.9,2.9-3.5-0.2-3.6-2.5c0-0.3-0.3-0.7-0.4-1C93,74,88.2,63.9,83.4,53.7c-0.7-1.4-1.3-1.3-2.5-0.8c-3.7,1.8-7.4,3.6-11.2,5.2
		c-2.2,0.9-2.4,1.8-1.3,3.9c3,5.5,2.5,6.3-3.1,8.6c-1.1,0.5-1.6,0.3-2-0.7c-0.8-1.8-1.8-3.7-2.6-5.5c-0.4-0.8-0.5-1.3-1.7-0.6
		c-2.8,1.8-5.7,3.4-8.7,4.8c-1.3,0.7-1.1,1.3-0.6,2.2C55.6,80.4,61,90,66.4,99.6z M148.7,82.6c3.3-0.9,6.1,0.8,7,4.2
		c0.6,2.4,1.3,4.8,1.9,7.2c0.1,0,0.2,0,0.3,0l0,0c0.5,0.4,0.7,0.9,0.8,1.4c-0.1,0.2-0.1,0.4-0.2,0.7c-0.4,2,0.8,3.7,1.1,5.6
		c0.1,0.1,0.2,0.1,0.3,0.2c0.1,0.7,0.2,1.4,0.5,2.1c0,0.2,0,0.5,0.1,0.7c0.6,2.5,1.2,5,1.8,7.5c0.3,0.5,0.2,0.9,0,1.3
		c-3.1,1.9-6.7,2.3-10.1,3.3c-0.9,0.3-1.3-0.2-1.6-1.2c-2.2-8.7-4.7-17.3-6.9-25.9C142.9,86.5,145,83.5,148.7,82.6z M317.7,86
		L317.7,86L317.7,86c1,2.1,0.4,4.2,0,6.4l0,0l0,0c-0.4,1.5-0.8,3.1-1.1,4.6l0,0l0,0c-0.8,0.8-0.4,2.1-1,3l0,0l0,0
		c-1.3,5.1-2.7,10.2-4,15.3c-0.4,1.7-0.9,2.7-3.1,1.8c-2.1-0.9-4.4-1.3-6.7-1.9c-1.3-0.3-2-1-1.7-2.5c2-8.7,4-17.4,6-26.1
		c0.5-2,1.9-3.4,3.8-3.7C313,82.6,316,82.9,317.7,86z M237.2,73.8c0.9,1.1,1.1,2.3,1.2,3.7c0,8.4-0.1,16.7,0,25.1
		c0,2-0.6,2.5-2.4,2.3c-2.4-0.2-4.7-0.2-7.1,0c-2.3,0.2-2.6-0.7-2.6-2.8c0.1-8,0-16-0.1-24c-0.1-2.9,0.4-5.2,3.4-6.3
		C232.4,70.8,235,71.4,237.2,73.8z M222.4,156c65.8-1.1,116.6,28.4,116.6,28.4L119.8,185C119.9,185.1,163.2,157.1,222.4,156z"/>
	<path class="st0" d="M450.3,465.1c-4.8-3.5-9.7-7.1-14.5-10.6c-4.7-3.5-4.6-3.5-3-8.9c2.6-8.5,5.3-17,8-26
		c-5.1,2.9-9.8,5.5-14.5,8.1c-15.1,8.4-30.2,16.9-45.3,25.3c-11.1,6.2-22.1,12.4-33.2,18.5c-0.9,0.5-2.3,0.9-1.9,2.2
		c1,3.1,0,6.3,0.9,9.4c0.6,1.9-0.1,3.2-2.4,3.6c-7.1,1.2-14.1,2.7-21.2,3.9c-9,1.5-18.1,2.7-27.2,4c-9.6,1.3-19.2,2.1-28.8,3.1
		c-7,0.7-14.2,1-21.2,1.1c-14.4,0.3-28.8,0.4-43.2-0.5c-5.3-0.3-10.7-0.6-16-1.1c-6.5-0.6-13-1.4-19.6-2.1c-4.9-0.6-9.8-1.3-14.7-2
		c-6.2-0.9-12.5-1.8-18.7-2.9c-6.5-1.1-13-2.6-19.6-3.7c-1.4-0.3-2.1-0.9-1.7-2.1c0.9-3,0-6.2,0.8-9.2c0.5-2-0.1-2.8-1.8-3.8
		c-20.8-11.5-41.5-23.2-62.3-34.8c-10-5.6-20-11.2-30.5-17c3.1,9.7,5.9,19,9,28.2c0.8,2.3,0.6,3.7-1.6,5.2
		c-5.8,4-11.3,8.2-16.9,12.3c-1,0.8-1.8,1.4,0.1,2.4c17.1,9.1,34.1,18.3,51.1,27.4c12.8,6.8,25.6,13.6,38.5,20.3
		c1.4,0.8,1.9,1.7,1.6,3.3c-0.4,2.2-0.5,4.5-1,6.7c-0.6,2.6,0.5,3.3,2.8,3.8c9.2,2,18.5,3.8,27.8,5.4c5.6,1,11.1,2,16.8,2.7
		c6.8,0.8,13.6,1.8,20.4,2.4c8.4,0.8,16.7,1.6,25.1,2.1c4.9,0.3,9.8,0.2,14.7,0.6c11,0.9,22.1,0.6,33.1,0.2
		c10.8-0.4,21.6-0.9,32.3-1.9c8-0.7,16-1.4,24-2.4c9.2-1.2,18.3-2.6,27.5-4.1c11.4-2,22.8-4,34.1-6.6c1.3-0.3,1.9-0.9,1.5-1.9
		c-0.7-2.1-0.1-4.4-0.8-6.4c-0.6-1.7,0-2.7,1.5-3.5c14.2-7.5,28.4-15.1,42.6-22.7c15.7-8.4,31.4-16.8,47.2-25.2
		C452.2,466.8,451.6,466.1,450.3,465.1z"/>
</g>
<g>
	<path d="M409,67.9c-2.5-1.3-5-2.6-7.3-4.2c-2.1-1.4-2.9-1.1-4,1.2c-2.8,6.4-2.9,6.3-9,2.8c-1.1-0.6-1.2-1-0.7-2
		c0.9-1.8,1.5-3.8,2.3-5.6c0.7-1.6,0.6-2.3-1.3-3.1c-4.7-1.9-9.4-4-14-6.3c-1.5-0.7-2.1-0.5-2.7,1c-1.8,4.5-3.8,8.8-5.6,13.3
		c-2.9,7.4-8.1,14.2-7.1,22.8c0.2,1.4-0.9,1.3-1.6,0.8c-2.9-2.1-4-0.6-4.7,2.1c-0.3,1-0.9,1.9-1.2,3c-0.5,1.8-1.3,2-3,1.2
		s-2.5-1.5-1.3-3.4c0.8-1.3,1.2-2.8,1.9-4.1c0.8-1.6,0.7-2.6-1.3-3c-0.5-0.1-0.9-0.6-1.4-0.7c-2.4-0.7-1.8-1.5-0.3-2.7
		c1.6-1.2,3.4-2.3,4.2-4.4c4.2-10.2,8.4-20.4,12.7-30.6c-4.9-1.8-9.6-3.6-14.3-5.4c-1.4-0.6-2.1-0.5-2.5,1.1
		c-0.6,1.9-1.4,3.8-2.3,5.7c-0.2,0.5-0.1,1.4-1.3,1.3c-2.9-0.2-4.1-1.8-3.2-4.4c0.5-1.4,1-2.8,1.5-4.3c0.6-1.5,0.4-2.2-1.5-2.7
		c-6.3-1.6-12.6-3.5-18.9-5.3c-5.7-1.6-5.7-1.6-7,4.4c-0.5,2.1-1,3.3-3.7,2.3c-1.9-0.7-2.6-1-1.8-2.9c0.5-1.4,0.8-2.9,1.1-4.4
		c0.3-1.4-0.1-2.4-1.7-2.7c-4.5-0.9-8.9-1.8-13.4-2.7c-1.6-0.3-2.6,0.2-3,2c-1.1,6.6-2.5,13.1-3.6,19.7c-0.9,5.7-3.3,11.4-0.9,17.3
		c0.4,1,0,1.6-1.4,1.2c-2-0.5-4.6-1.4-6.1-0.6c-1.7,0.9-1.4,3.8-1.8,5.8c-0.1,0.7-0.6,2-0.9,2c-1.6,0-3.3,0-4.7-0.7
		c-0.8-0.4-0.4-2-0.1-3c1.3-5.9,1.4-5.9-4.6-6.6c-1.6-0.2-2.1-0.6-0.9-1.9c1.2-1.3,2.2-2.6,2.3-4.4c0.4-3.8,0.8-7.6,1.2-11.4
		c0.8-7,1.3-14.1,2.4-21c0.3-2.1-0.2-2.4-1.9-2.3c-4.8,0.1-9.6-0.3-14.3-1.1c-2.4-0.4-3.5,0.3-3.1,2.9c0.2,1.5,0,3.1,0,4.6
		c0,0.9-0.4,1.3-1.2,1.4c-4.4,0.6-5.3-0.1-5.4-4.4c0-5.2,0-5.2-5.5-5c-1.1,0.3-2.2,0.1-3.2,0.2c-5,0.1-9.9-0.2-14.9,0.2
		c-1.3,0-2.6,0-3.8,0c-5.4,0.1-5.4,0.1-5.4,5.6c0,3.7,0,3.8-3.7,3.7c-3.9,0-3.4,0.5-3.4-3.5c0-1.1-0.1-2.2-0.1-3.3
		c0.2-2.4-1.1-2.6-3.1-2.4c-4,0.4-8,0.8-12,1c-3.8,0.2-4,0.1-3.4,3.9c0.3,2,0.4,4,0.6,6c0.7,6.3,1.4,12.6,2.1,18.9
		c0.5,4.1,0.4,8.4,3.6,11.6c0.1,0.1,0,0.3,0,0.6c-1.1,0.2-2.2,0.6-3.4,0.7c-4.5,0.5-4.4,0.5-4,4.8c0.1,1,0,2,0.4,2.9
		c0.2,0.4,0.4,1.4-0.2,1.4c-1.7,0.2-3.4,1.2-5,0.6c-1.2-0.5-1.1-2.1-1.2-3.3c-0.5-5.8-0.5-5.8-6.1-4.6c-0.2,0-0.3,0.1-0.5,0.2
		c-1.4,0.3-2,0-1.6-1.6c0.3-1.6,1.2-3,0.8-4.9c-1.3-6.6-2.3-13.2-3.5-19.8c-0.7-4-1.4-8.1-2.3-12.1c-0.2-1-0.2-2.4-2.4-1.6
		c-2.5,1-5.4,1.2-8.1,1.8c-2.3,0.4-5.4,0.1-6.6,1.5c-1.5,1.7,0.1,4.7,0.9,6.9c1,2.8-0.8,2.7-2.3,3.2c-1.8,0.5-3.2,0.5-3.4-1.9
		c-0.2-1.7-0.7-3.3-1.1-5c-0.3-1.2-0.5-2-2.3-1.4c-7.4,2.4-14.9,4.5-22.4,6.7c-1.6,0.5-1.8,1.1-1.3,2.5c0.7,1.8,1.2,3.7,1.7,5.6
		c0.2,0.6,0.5,1.2-0.5,1.8c-3.1,1.7-4.2,1.4-5.4-1.9c-0.5-1.3-1.2-2.4-1.5-3.7c-0.4-1.7-1.1-1.6-2.5-1.1c-4.5,1.8-8.9,3.5-13.5,5.1
		c-1.5,0.5-1.9,1-1.2,2.7c3,7.3,5.5,14.7,8.5,22c1.8,4.2,2.4,9.1,6.6,12c1,0.7,0.5,1.4-0.3,1.5c-2.8,0.5-2.1,2-1.2,3.7
		c0.4,0.7,0.6,1.5,0.9,2.2c1.6,4,1.6,3.9-2.3,5.8c-1.4,0.7-1.8,0.2-2.3-0.9c-0.9-2-1.9-4-2.9-5.9c-0.3-0.5-0.7-1.6-1.2-1.2
		c-3.9,2.9-3.5-0.2-3.6-2.5c0-0.3-0.3-0.7-0.4-1C92.9,74.1,88.1,64,83.3,53.8c-0.7-1.4-1.3-1.3-2.5-0.8c-3.7,1.8-7.4,3.6-11.2,5.2
		c-2.2,0.9-2.4,1.8-1.3,3.9c3,5.5,2.5,6.3-3.1,8.6c-1.1,0.5-1.6,0.3-2-0.7c-0.8-1.8-1.8-3.7-2.6-5.5c-0.4-0.8-0.5-1.3-1.7-0.6
		c-2.8,1.8-5.7,3.4-8.7,4.8c-1.3,0.7-1.1,1.3-0.6,2.2c6,9.5,11.4,19.1,16.8,28.7c0.5,0.9,0.9,1.9,2.1,1.9c3.3,0.1,5.5,1.7,7.4,4.2
		c0.9,1.2,2.1,2,3,3.1c0.6,0.7,1.1,0.7,2.1,0.4c4.2-1.6,7.4-0.3,9.3,3.8c3.7,7.5,7.3,15.2,11,22.7c0.7,1.3,0.5,1.8-0.7,2.4
		c-2.7,1.4-5.4,2.8-8.1,4.3c-3,1.7-3.8,4-2.6,7.6c1.2,3.4,2.6,4.2,6.2,3.6c1.2-0.2,1.9,0.1,2.6,1.3c3.2,5.5,6.5,11,9.7,16.5
		c0.3,0.6,1.2,1.3,0.3,2.1c-3.8,3.5-3.5,7.2-0.2,11.3c-4.2,0-8,0.2-11.8-0.1c-2.6-0.2-3,0.8-3,3.1c0.1,82.7,0.1,165.3,0,248
		c0,2.2,0.5,4.3,1.4,6.2c3.7,7.5,9.7,11.2,18.1,11.2c30.1,0,60.2,0.1,90.3,0.1c1.3,0,2.2,0.1,3.1,1.1c7.5,8.9,15.2,17.7,22.6,26.7
		c1,1.2,1.2,0.8,1.9-0.1c1.3-1.7,2.7-3.4,4.1-5c5.2-6.1,10.2-12.2,15.6-18.1c1.6-1.8,2.5-4.7,5.8-4.7c27.1,0.1,54.2,0.1,81.3,0.1
		c4.2,0,8.4,0,12.6-0.3c7.9-0.6,15.9-8.7,15.9-16.6c0.1-29.1,0.1-58.2,0.1-87.3c0-54,0-108,0.1-162c0-2.1-0.7-2.4-2.5-2.3
		c-4.1,0.1-8.1,0-12.3,0c2.6-4.3,2.2-6.2-1.7-9c-1-0.7-1.2-1.2-0.5-2.4c3.4-5.7,6.6-11.4,9.9-17.1c0.8-1.3,1.1-4,3.7-1.8
		c0.3,0.2,1.2-0.2,1.7-0.5c3.9-2.3,6.9-7,1-11.1c-3-2.1-6.1-4-9.2-6c-1-0.6-1.5-1-0.7-2.4c4.5-7.7,8.8-15.6,13.1-23.4
		c0.7-1.2,1.7-1.9,2.9-2.6c2.7-1.8,5.2-0.6,7.8-0.1c1.8,0.4,3.1,0.3,3.9-1.6c1.1-2.5,3.1-4,5.4-5.5c2.1-1.3,4.6-2.2,5.9-4.5
		c4.9-8.9,9.8-17.9,14.8-26.8C410.3,68.9,410.2,68.5,409,67.9z M300.2,112.8c2-8.7,4-17.4,6-26.1c0.5-2,1.9-3.4,3.8-3.7
		c3-0.4,6-0.1,7.7,3l0,0l0,0c1,2.1,0.4,4.2,0,6.4l0,0l0,0c-0.4,1.5-0.8,3.1-1.1,4.6l0,0l0,0c-0.8,0.8-0.4,2.1-1,3l0,0l0,0
		c-1.3,5.1-2.7,10.2-4,15.3c-0.4,1.7-0.9,2.7-3.1,1.8c-2.1-0.9-4.4-1.3-6.7-1.9C300.5,114.9,299.8,114.3,300.2,112.8z M229.5,71.8
		c2.9-1.1,5.5-0.4,7.7,1.9c0.9,1.1,1.1,2.3,1.2,3.7l0,0c0,8.4-0.1,16.7,0,25.1c0,2-0.6,2.5-2.4,2.3c-2.4-0.2-4.7-0.2-7.1,0
		c-2.3,0.2-2.6-0.7-2.6-2.8c0.1-8,0-16-0.1-24C226,75.3,226.5,72.9,229.5,71.8z M148.7,82.6c3.3-0.9,6.1,0.8,7,4.2
		c0.6,2.4,1.3,4.8,1.9,7.2c1.3-0.1,1.5,0.3,0.9,2.1c-0.4,2,0.8,3.7,1.1,5.6c1.3,0.7,0.5,2,0.9,3c0.6,2.5,1.2,5,1.8,7.5
		c0.3,0.5,0.2,0.9,0,1.3c-3.1,1.9-6.7,2.3-10.1,3.3c-0.9,0.3-1.3-0.2-1.6-1.2c-2.2-8.7-4.7-17.3-6.9-25.9
		C142.9,86.5,145,83.5,148.7,82.6z M119.9,185.1c0,0,43.3-28,102.6-29c65.8-1.1,116.6,28.4,116.6,28.4L119.9,185.1z"/>
	<g>
		<path class="st1" d="M97.4,398.3c9.9,0,19.9-0.1,29.8,0c2.1,0,3.6-0.5,5.1-2.1c2.8-3.1,5.8-6,8.8-8.9c1.2-1.2,1.7-2.4,1.7-4.1
			c0-9.9,0-19.9,0-29.8c0-1.2,0.4-2.8-0.9-3.5c-1.3-0.7-2.5,0.1-3.9,0.9c-6.6,4.2-13.9,6.7-21.8,5.9c-7.1-0.7-11.5-9.2-8.3-16
			c0.8-1.7,1.7-3.4,2.8-4.9c1.3-2,1-3.6-0.8-5.2c-3.3-3-4.9-6.7-4.3-11.2c0.1-0.8-0.1-1.7,0.7-2.3c4-2.7,7.3-6.5,11.9-8.4
			c4.4-1.8,8.9-1,13.4-0.3c3.8,0.6,4.7,0.2,6.1-3.1c0.6-1.3,1.6-1.9,2.8-2.4c3.2-1.4,6.4-2.3,10-1.3c3.2,0.9,6.6,1.4,9,4
			c2.9,3.2,6.5,3.2,10.2,2.4c5.3-1.2,10.5-1.2,15.7,0.7c2.8,1.1,5.2,2.8,7.3,4.9c3.8,4,2.6,9.2-0.4,12.8c-2,2.4-3.4,4.8-2.8,8.1
			c0.4,1.8,0.9,3.1,2.8,3.9c4.4,1.9,6.6,7.8,4.7,12.1c-0.8,1.9-2.9,3-4.7,3.3c-8.6,1.5-17.1,1.3-25.4-1.6c-1.1-0.4-2.1-1.4-3-2.3
			c-0.8-0.8-1.6-1.3-2.8-1.5c-3.3-0.5-4-0.1-4,3.3c-0.1,10.4,0,20.8-0.1,31.2c0,1.8,0.5,3.2,1.9,4.5c3.1,2.8,6,5.7,8.8,8.8
			c1.5,1.7,3.1,2.1,5.2,2.1c36.1-0.1,72.3-0.3,108.4,0.2c6.7,0.1,11.5-1.7,15.4-6.8c0.2-0.3,0.4-0.6,0.7-0.8c5.3-3.3,6-8.2,5.7-14
			c-0.4-8.3-0.1-16.6-0.2-24.9c0-1.1,0.8-2.8-0.6-3.2c-1.7-0.5-3.9-1-5.2,0.4c-5.2,5.1-11.7,5.4-18.3,5.5c-3.2,0-6.3,0.4-9.5-0.4
			c-3.1-0.8-6.6-1.6-6.9-5.4c-0.4-5.1,0.3-7.7,4.8-10.3c3.7-2.1,4.7-7,1.9-10.2c-2.2-2.7-4.3-5.3-4.3-9.1c0-1.8,0.4-3.4,1.6-4.7
			c5.3-5.9,11.9-8.2,19.7-7.2c2.5,0.3,5,1,7.5,1.2c2.8,0.2,4.9-1.3,7-3c5.8-4.6,12.1-5.5,19-2.5c1.3,0.6,2.2,1.3,2.5,2.6
			c0.7,2.7,2.7,3.3,5,3c1.7-0.2,3.5-0.3,5.1-0.6c5.7-1.1,10.5,0.5,14.8,4c1.8,1.4,3.5,2.9,5.4,4.2c1.5,1,2,2.4,2.1,4.1
			c0.2,4-1.5,7.3-4.3,9.8c-2.2,2-2.2,3.9-0.9,6.2c0.8,1.3,1.5,2.7,2.2,4.1c3.9,6.6-1.2,16.8-10,16.5c-7.6-0.3-14.4-2.3-20.5-6.6
			c-1.1-0.8-2.2-0.7-3.3-0.4c-1,0.3-0.9,1.2-0.9,2.1c0,10.5,0,21,0,31.5c0,1.6,0.5,2.7,1.6,3.8c3.3,3.2,6.5,6.4,9.7,9.7
			c0.9,0.9,1.8,1.4,3.1,1.4c10.7,0,21.3,0,32,0c0,12.3,0,24.6,0.1,36.9c0,7.9-8.4,15.4-16.3,15.3c-30.8-0.4-61.7-0.2-92.5-0.2
			c-1.2,0-1.8,0.5-2.4,1.3c-1.4,1.6-2.9,3.2-4.3,4.9c-2.9,2.3-5.3,5-7,8.3c-3.1,3.7-6.2,7.3-9.2,11c-1,1.2-2.1,1.5-3.2,0.2
			c-3.9-4.6-7.8-9.3-11.7-13.9c-1.2-1.9-2.2-4-4.4-5.1c-1.2-1.3-2.7-2.5-3.6-4c-1.4-2.5-3.4-2.6-5.9-2.6
			c-30.5,0.1-61.1,0.1-91.6,0.1c-6.4,0-13.1-5.7-14.4-12.2c-0.1-0.7-0.3-1.4-0.4-2.1c0.4-6.8,0.1-13.6,0.2-20.5
			c0.1-4.6,0-9.3,0-13.9C96.6,400.4,96.5,399.2,97.4,398.3z"/>
		<path class="st1" d="M97.4,398.3c-0.5,1.4-0.5,2.9-0.5,4.3c0,10.2,0,20.4,0,30.6c0,0.9,0.4,2-0.5,2.8c0-12.6,0-25.2,0-37.7
			C96.7,398.3,97.1,398.3,97.4,398.3z"/>
		<path class="st1" d="M240.9,464.6c1.3-3.6,3.5-6.5,7-8.3C245.6,459.1,243.3,461.8,240.9,464.6z"/>
		<path class="st1" d="M212.3,456.8c1.2-0.1,2.9,1.2,3.9,3c0.3,0.6,0.8,1.3,0.6,2C215,460.5,213.8,458.5,212.3,456.8z"/>
	</g>
	<g>
		<path class="st2" d="M19,419.6c10.5,5.9,20.5,11.4,30.5,17c20.8,11.6,41.5,23.2,62.3,34.8c1.7,1,2.3,1.8,1.8,3.8
			c-0.7,3,0.1,6.2-0.8,9.2c-0.4,1.2,0.3,1.9,1.7,2.1c6.5,1.2,13,2.6,19.6,3.7c6.2,1.1,12.4,2,18.7,2.9c4.9,0.7,9.8,1.4,14.7,2
			c6.5,0.8,13,1.6,19.6,2.1c5.3,0.5,10.7,0.8,16,1.1c14.4,0.9,28.8,0.8,43.2,0.5c7.1-0.1,14.2-0.4,21.2-1.1
			c9.6-0.9,19.2-1.7,28.8-3.1c9.1-1.3,18.2-2.5,27.2-4c7.1-1.2,14.1-2.7,21.2-3.9c2.3-0.4,3-1.7,2.4-3.6c-1-3.1,0-6.3-0.9-9.4
			c-0.4-1.3,0.9-1.7,1.9-2.2c11.1-6.2,22.1-12.4,33.2-18.5c15.1-8.4,30.2-16.9,45.3-25.3c4.7-2.6,9.4-5.2,14.5-8.1
			c-2.8,8.9-5.4,17.4-8,26c-1.7,5.4-1.7,5.5,3,8.9c4.8,3.6,9.7,7.1,14.5,10.6c1.3,1,1.9,1.6-0.1,2.7c-15.8,8.3-31.5,16.8-47.2,25.2
			c-14.2,7.6-28.4,15.1-42.6,22.7c-1.5,0.8-2.1,1.8-1.5,3.5c0.7,2.1,0.2,4.3,0.8,6.4c0.3,1.1-0.2,1.6-1.5,1.9
			c-11.3,2.6-22.7,4.6-34.1,6.6c-9.1,1.6-18.3,3-27.5,4.1c-8,1-16,1.7-24,2.4c-10.8,0.9-21.6,1.5-32.3,1.9c-11,0.4-22,0.6-33.1-0.2
			c-4.9-0.4-9.8-0.2-14.7-0.6c-8.4-0.6-16.7-1.3-25.1-2.1c-6.8-0.6-13.6-1.6-20.4-2.4c-5.6-0.7-11.2-1.7-16.8-2.7
			c-9.3-1.6-18.5-3.4-27.8-5.4c-2.3-0.5-3.4-1.2-2.8-3.8c0.5-2.2,0.6-4.5,1-6.7c0.3-1.6-0.1-2.5-1.6-3.3
			c-12.8-6.7-25.7-13.5-38.5-20.3c-17.1-9.1-34-18.3-51.1-27.4c-1.9-1-1.1-1.6-0.1-2.4c5.6-4.2,11.2-8.4,16.9-12.3
			c2.2-1.5,2.3-2.9,1.6-5.2C24.9,438.6,22,429.3,19,419.6z"/>
		<path class="st3" d="M138.8,509.3c-0.8,5.3-1.7,10.7-2.4,16.2c-0.2,1.3-0.6,1.5-1.7,1.4c-1.8-0.2-3.6-0.3-5.4-0.6
			c-1.2-0.2-0.7-1.2-0.7-1.7c0.5-4.6,1.1-9.1,1.7-13.7c0.5-3.6,1-7.1,1.6-10.6c0.2-1.6,0.2-2.7,2.9-2.6c4.2,0.1,6.3,1.8,8,5.3
			c2.4,5,5.3,9.7,7.5,15c0.8-5.4,1.6-10.7,2.3-16c0.2-1.6,0.6-1.8,2.2-1.5c5.6,1.1,5.6,1,4.9,6.5c-0.8,6.2-1.5,12.5-2.7,18.7
			c-0.1,0.7,0,1.4,0.4,2.2c3.6-7.7,7.2-15.3,10.7-23.1c1-2.2,2.2-3.2,4.5-2.1c0.3,0.1,0.7,0.1,1.1,0.2c7.1,0.4,5.3-0.2,6.9,6
			c1.9,7.3,3.5,14.6,5.8,21.9c0.3-3.9,0.5-7.8,0.8-11.6c0.3-4.4,0.7-8.7,1-13c0.1-1.3,0.5-1.9,1.8-1.6c0.1,0,0.2,0,0.3,0
			c5.2-1.4,7.3,2.2,9.3,5.8c2.4,4.2,5.4,8,7.7,12.8c1-5.3,0.9-10.2,1.2-15.1c0.1-1.9,0.7-2.6,2.5-2.4c0.4,0.1,0.7,0,1.1,0
			c4.1,0.2,4.3,0.4,4.1,4.4c-0.3,8-0.9,15.9-1.6,23.8c-0.1,0.5,0.1,1-0.6,1.3c-2.6,1.1-7.2-0.5-8.8-3c-3.3-5.4-6.7-10.8-10.1-16.2
			c-0.3,5.1-0.6,10.2-0.8,15.4c-0.1,1.9-0.3,2.7-2.6,2.3c-3.6-0.6-7.3-0.6-11-0.7c-1.8-0.1-2.9-0.5-2.9-2.7c0-2.4-0.9-3.8-3.8-3.5
			c-2,0.3-4.1-0.7-6.2-0.5c-0.7,0.1-1.6-0.1-1.7,0.9c-0.6,4.2-3.7,3.8-6.6,3.5c-3.2-0.4-6.4-1.1-9.5-1.6c-0.8-0.1-1.3-0.4-1.7-1.1
			C145.2,521.8,141.4,515.8,138.8,509.3z"/>
		<path class="st3" d="M277.4,536.6c-1.7,0.2-2.8,0.4-4,0.6c-1.8,0.3-3.3,0.1-4.3-1.9c-0.7-1.5-2-1.8-3.8-1.2
			c-8.5,3-17.8-1.8-19.8-10.5s2.6-16.7,12-19c5.8-1.4,12.8,1.7,16.1,6.7c3.2,4.9,3.2,12-0.2,17c-0.9,1.3-1.3,2.2,0.1,3.5
			C274.8,533,275.9,534.7,277.4,536.6z"/>
		<path class="st3" d="M290,532.4c-7.3,0.8-11.2-2.2-12.4-9.5c-0.8-5.1-1.5-10.3-2.2-15.4c-0.3-2.2-0.2-4.1,3-3.6
			c0.8,0.1,1.8-0.3,2.7-0.5c1.8-0.2,2.4,0.4,2.7,2.4c0.6,5.3,1,10.6,2,15.8c0.7,3.4,2.1,4.2,6.2,3.7c2-0.3,3.4-2.6,3.1-5.3
			c-0.6-5.3-1.3-10.6-2-15.8c0-0.2,0-0.4,0-0.5c-0.1-1.5,0.9-2.2,2-1.8c2,0.8,5.3-2.8,6.1,1c1.2,5.7,1.8,11.7,2,17.5
			c0.3,7.1-1.9,10.5-11.1,12C291.2,532.5,290.6,532.4,290,532.4z"/>
		<path class="st3" d="M243.6,516.4c0,2.8,0.1,5.7,0,8.5c-0.2,4.5-2.4,9.6-8.6,10.4c-3.5,0.5-7,0.7-10.2-0.4
			c-4.7-1.6-6.4-3.6-6.8-9.6c-0.4-5.9,0-11.9-0.1-17.8c0-1.4,0.4-2,1.8-2c7.2,0,5.8-0.8,6,5.5c0.1,4.4,0.3,8.7,0.4,13.1
			c0.1,3,1.4,4.3,4.3,4.3c3.3,0,4.9-1.3,5-4.3c0.1-5.3,0.1-10.6,0-15.9c-0.1-2.4,0.8-2.9,3-2.9c5.3,0.1,5.3,0,5.3,5.1
			C243.6,512.6,243.6,514.5,243.6,516.4z"/>
		<path class="st3" d="M322.5,514.2c0.3,1.5-0.5,2.3-2,2.3c-1.3,0-2.5,0.3-3.7,0.5c-3.3,0.6-3.5,1-2.5,4.1c0.3,0.8,0.4,0.6,1,0.5
			c2.3-0.5,4.6-0.7,6.9-1.2c1.3-0.3,1.8,0,2.2,1.4c0.4,1.3,0.2,2.7,0.7,4c0.7,1.6-1.2,1.4-1.8,1.5c-3.7,0.7-7.4,1.3-11.1,1.7
			c-5,0.6-4.8,0.5-5.5-4.4c-1-7.3-2.1-14.5-3.5-21.7c-0.3-1.6,0.2-2,1.3-2.2c4.8-0.8,9.6-1.5,14.4-2.2c1.3-0.2,1.9,0.1,2.1,1.7
			c0.5,4.8,0.6,4.8-4.5,5.4c-0.7,0.1-1.4,0.5-2.1,0.5c-1.8-0.1-2.6,0.7-2.2,2.4c0.3,1.5,0.4,3.3,3,2.1c0.9-0.4,2.1-0.3,3.1-0.6
			C321.4,509.3,322.4,510.3,322.5,514.2z"/>
		<path class="st3" d="M415.1,471.6c-4.1,0-6.5-3.5-5.2-7.4c0.1-0.3,1.3-1-0.1-1.4c-2.8-0.7-4.1-2.8-3.8-5.4
			c0.4-3.1,2.8-4.7,5.6-5.6c3.4-1,6.1-0.4,6.6,2.4c0.5,3.1,2,4.5,4.3,6.1c2.5,1.7,2.3,4.8,0.5,7.2
			C421.4,469.9,417.8,471.6,415.1,471.6z"/>
		<path class="st3" d="M90.8,491.1c0.7,0.9,1.5,1.1,2.1,1.5c1.1,0.6,2.5,0.9,1.5,3c-0.9,1.9-1.8,2-3.4,1.1c-3.5-2-7-3.9-11.1-6.1
			c4.4-1.7,8.1-3.2,11.8-4.6c1.1-0.4,2.2-0.8,3-1.7c1-1,1-2,0-3.1s-2-1-3.1,0s-4.3,0.4-4.9-0.9c-0.2-0.4,0-0.6,0.2-1
			c1.3-2.3,4.6-3.8,7.2-3.2c3.3,0.7,6.2,3.8,6.5,6.8c0.2,2.2-1.7,5.1-4.3,6.2C94.6,489.8,92.8,490.4,90.8,491.1z"/>
		<path class="st3" d="M38.2,462.6c0.3,1,1.3,1,1.9,1.4c1.1,0.8,2.8,0.8,1.6,3.1c-1.1,2.1-2.1,1.8-3.7,0.8c-3.4-2-6.9-3.8-10.7-5.9
			c4.1-1.6,7.7-3.1,11.3-4.6c1.2-0.5,2.5-0.9,3.5-1.8c0.9-0.9,1-1.9,0.1-2.9c-0.8-1-1.8-1.2-2.8-0.4c-0.7,0.6-1.3,1.8-2.5,1
			c-1-0.6-2.9-0.8-2.7-2.2c0.2-2,2.1-2.9,3.8-3.5c4.4-1.5,9.9,2.7,9.7,7.3c-0.1,2.6-1.8,4.7-4.6,5.7c-1.3,0.5-2.7,1-4,1.5
			C38.8,462.3,38.5,462.4,38.2,462.6z"/>
		<path class="st3" d="M386.5,488.4c0.2-2.9-0.3-5.1,0.8-7.5c-1.5,0.5-2.6,1-3.7,1.1c-3.1,0.4-5.8-1.6-6.7-4.7
			c-1-3.3,0.4-6.6,3.7-8.5c4.9-2.8,9.9-0.1,11.1,5.5c0.7,3.4-0.2,6.7-0.2,10C391.3,486.9,388.2,486.6,386.5,488.4z"/>
		<path class="st3" d="M393.9,473.2c0.7-2.9-0.2-6.1,0.8-9.1c0.3-0.9-0.4-2.2,0.4-2.8c1.3-1,2.8-1.9,4.3-2.6c1-0.5,1.4,0.7,1.7,1.3
			c1.1,1.9,2.1,3.9,3.2,5.8c0.6,1.1,0.7,2.5,2.7,1.6c0.9-0.4,2.5,2.9,1.6,3.5c-1.4,1.1-0.6,1.9,0,2.7c0.6,1,1.4,1.8-0.4,2.4
			c-1.3,0.5-2.6,2.4-3.7-0.1c-1-2.2-2.2-1.9-3.7-0.8c-0.7,0.5-1.5,1.1-2.3,1.4c-1,0.4-2.1,1.8-3.1,0.9
			C394.5,476.4,393.7,474.9,393.9,473.2z"/>
		<path class="st3" d="M57,461.5c-1.9-1.1-3.6-2.1-5.4-3c-1.3-0.6-1.4-1.3-0.7-2.5c0.7-1.1,1-2.5,2.7-1.6c3.6,1.9,7.1,3.8,10.6,5.8
			c1.3,0.7,1.1,1.4,0,2.2c-4.7,3.4-9.3,6.9-13.9,10.3c-1.3,0.9-5.2,0.2-5.8-1.2c-0.5-1.1,0.6-1.4,1.2-1.9
			C49.4,466.9,53,464.3,57,461.5z"/>
		<path class="st3" d="M365.2,479.3c-0.2-1.7,1-2.2,2.3-2.9c4.2-2.1,4.1-2.1,6.3,2c1.9,3.5,3.6,7.2,5.8,10.6
			c1.6,2.4-0.2,2.8-1.5,3.8c-1.9,1.5-2.5-0.1-3.1-1.3c-1.7-3.1-3.4-6.3-5.1-9.4c-0.4-0.8-0.7-1.5-1.9-0.7
			C366,482.8,365.1,482.1,365.2,479.3z"/>
		<path class="st3" d="M86.1,472.6c-0.6,2.3-2.1,4.1-3.1,6.1c-1.4,2.8-2.9,5.5-4.4,8.2c-0.7,1.4-1.2,2.6-3.3,1.3
			c-1.6-1-2.7-1.6-1.4-3.7c1.7-2.8,3.1-5.8,4.8-8.7c0.8-1.4,0.9-2.5-0.8-3.2c-1.5-0.6-1.7-1-0.2-2c2.4-1.6,6.3-1.2,8,1
			C86,472,86,472.3,86.1,472.6z"/>
		<path class="st4" d="M55.3,479.7c5.9-4.6,11.7-9.2,17.5-13.8c0.7-0.5,1.2-1,2.1-0.6c1.4,0.6,2.1,1.2,0.5,2.5
			c-4.8,3.7-9.5,7.5-14.2,11.2c-0.4,0.3-0.8,0.5-1.1,0.8C58.6,481.9,57.1,481.6,55.3,479.7z"/>
		<path class="st2" d="M173.8,509.1c0.8,3.9,1.3,7,2,10c0.3,1.4,0,1.9-1.5,1.8c-1.7,0-3.2-0.5-5.1-0.8
			C170.6,516.7,172.1,513.2,173.8,509.1z"/>
		<path class="st2" d="M258.6,522.7c1.5,1.9,2.6,3.4,3.7,4.9c-5.4,1.8-9.5-3.2-9.1-8.6c0.4-5.4,4.4-8.5,9.1-7.4c4,1,6.9,7.3,5,11.1
			c-0.1,0.3-0.1,1.2-0.7,0.6C264.2,520.6,261.6,522.6,258.6,522.7z"/>
		<path class="st2" d="M416.2,467.3c-1.1-0.7-2.4-1.3-2.3-2.9c0.1-1.5,1.3-2.1,2.6-2.2c1.6-0.1,2.2,0.9,2.3,2.3
			C419,466.5,417.6,466.8,416.2,467.3z"/>
		<path class="st2" d="M414.4,457.7c-0.1,0.9-0.6,1.9-1.9,1.8c-1.1,0-1.9-0.8-1.9-2.1c0-1.4,0.9-1.6,1.9-1.7
			C413.7,455.7,414.5,456.1,414.4,457.7z"/>
		<path class="st2" d="M384,477.7c-1.9-0.1-2.7-1.5-2.7-2.9c0-1.5,1.1-2.6,2.8-2.6c2.1-0.1,2.7,1.6,2.8,3
			C386.9,476.6,385.5,477.5,384,477.7z"/>
		<path class="st2" d="M398.2,465.2c3.9,4.5,3.9,5,0,6.6C398.2,469.6,398.2,467.6,398.2,465.2z"/>
	</g>
	<path class="st3" d="M96.5,398.3c0-0.9-0.1-1.8-0.1-2.7c0-68.1,0-136.3,0-204.4c0-2.3,0.3-3.1,3-3.1c84.7,0.1,169.5,0.1,254.2,0.1
		c1.7,0,3.5,0,5.2,0c4.7,0,4.7,0,4.7,4.9c0,67.3,0,134.7,0,202c0,1.1,0,2.2-0.1,3.3c-0.9,1.1-2.1,0.9-3.3,0.9c-9.1,0-18.2,0-27.4,0
		c-2.1,0-3.9-0.6-5.4-2.2c-3-3.1-6-6.1-9.1-9.1c-1.5-1.4-2.1-3.1-2.1-5.1c0-9.9,0-19.7,0-29.6c0-4.2,2.2-5.4,5.8-3.2
		c6,3.7,12.4,6,19.6,6c8.6,0,12.4-8.8,9.6-14.8c-0.7-1.5-1.5-2.9-2.4-4.3c-1.5-2.6-1.4-4.9,0.8-7.2c2.1-2.2,3.8-4.6,4.1-7.9
		c0.2-2.2-0.3-4-2.1-5.3c-2.1-1.6-4.1-3.3-6.2-4.9c-3.5-2.6-7.5-3.6-11.9-3.1c-2,0.2-4,0.5-6,0.7c-2.3,0.3-4.5-0.3-5.6-2.5
		c-2.2-4.3-6.2-4.9-10.3-4.6c-4.2,0.3-8.2,1.5-11.5,4.6c-2.3,2.2-5.2,2.9-8.4,2.2c-2-0.4-4.1-0.7-6.2-0.9
		c-6.5-0.8-12.3,1.1-17.1,5.6c-3.1,2.9-3.6,6.1-1.6,9.9c0.8,1.5,1.7,2.8,2.6,4.2c3.3,4.4,2.5,9-2.2,11.8c-3.4,2-4.2,5.1-4.2,8.6
		c0,1.7,0.9,2.9,2.3,3.8c1.7,1,3.5,1.7,5.4,1.8c6.6,0.5,13.1,0.6,19.5-1.3c1.7-0.5,3.2-1.2,4.6-2.4c0.5-0.4,0.9-0.9,1.5-1.2
		c3.7-2.4,7.3-0.7,7.4,3.6c0.3,10.1,0.1,20.3,0.1,30.4c0,2-0.8,3.7-2.3,5.1c-2.9,2.7-5.7,5.4-8.3,8.4c-1.9,2.2-4.2,3.2-7.2,3.2
		c-37.6-0.1-75.2-0.1-112.7,0c-2.5,0-4.5-0.7-6.4-2.5c-2.9-2.8-5.6-5.7-8.5-8.5c-1.6-1.6-2.3-3.4-2.3-5.6c0-10.1,0-20.3,0-30.4
		c0-4.2,3.2-6.3,6.4-3.7c7.7,6.2,16.5,5.3,25.3,5.3c0.8,0,1.6-0.1,2.4-0.4c2.5-0.8,5.4-1.4,5.8-4.6c0.4-3.5,0.2-6.9-3.4-9.1
		c-5.1-3.2-6-7.7-2.2-12.4c6.5-8.2,3.1-14-5.1-17.6c-4.1-1.8-8.4-2.4-12.9-1.5c-1,0.2-2,0.2-3,0.5c-4.3,1.2-7.9,0.1-11.4-2.8
		c-4.8-3.9-10.4-5-16.4-2.7c-1.6,0.6-2.9,1.5-3.7,3c-1.3,2.7-3.6,3.5-6.4,3.1c-1.7-0.3-3.4-0.4-5.2-0.6c-4-0.6-7.8,0.3-11.2,2.5
		c-2,1.3-3.8,2.9-5.6,4.4c-4.1,3.2-4.7,7.5-1.7,11.8c0.4,0.6,0.9,1.2,1.3,1.7c3.3,4,3.4,4.8,0.7,9.2c-2.4,3.9-3.4,7.8-1.3,12.2
		c1.8,3.7,4.6,5.5,8.6,5.7c7.2,0.3,13.6-2,19.7-5.6c0.7-0.4,1.4-0.9,2.2-1.2c2.1-0.6,3.6,0.2,4.1,2.4c0.2,0.9,0.2,1.8,0.2,2.7
		c0,9.1-0.1,18.2,0,27.4c0,2.8-0.9,5.1-2.9,7.1c-2.8,2.6-5.4,5.4-8.2,8.1c-1.4,1.4-3.1,2.3-5.1,2.3c-9.9,0-19.9,0.2-29.8-0.1
		C97.2,398.8,96.8,398.6,96.5,398.3z"/>
	<g>
		<path class="st5" d="M173.7,215.5c6.2,2.3,11.6,6,17.5,8.9c6.2,3.1,12.1,6.8,18.7,9c2.1,1.1,4.4,0.8,6.6,0.9
			c13.1,0.1,26.2,0.1,39.4,0c2.2,0,4.3-0.3,6.5-0.2c1.8,0.1,3.1-0.9,3.8-2.5c3.2-2.6,6.4-5.3,9.7-7.9c3.6-2.9,7.2-5.8,10.9-8.8
			c3.7-0.6,7.4-0.1,10.5-0.3c-2.5-0.2-5.6,0.4-8.6-0.3c3.6-1,7.3-0.4,11-0.4c8.7,0.3,17.5,0.3,26.2,0c3.1-0.1,6.1-0.4,9.1,0.9
			c0.6,0.3,1.6-0.4,2.3-0.3c0.8,0.1,1.9,0,2.3,1.1c0.3,0.9-0.2,1.5-1,2c-1.9,1.2-2.7,3.9-5.4,4c-6.5,0.1-13,0.3-19.4,0.9
			c-0.7,0.1-1.4,0.1-2.1,0.5c-4.2,1.4-8,3.2-11.7,5.9c-5.9,4.4-12.2,8.4-17.7,13.3c-1.6,1.4-1.2,2.3-0.3,3.6
			c2.6,3.6,5.9,6.5,9.2,9.5c4.3,3.8,8.4,7.7,12.2,12c1,1.6,1.6,3-1.1,3.4l0,0c-3.6,0.4-7.3,0-10.9,0.4c-5.4,0.6-10.7-0.4-16.1-0.5
			c-2.4,0-4.7,0.5-7,0.6c-1.8,0.1-2,1.8-2.3,2.9c-1.3,4-1.1,8.2-1.4,12.4c0,0.7,0.5,1.7-0.6,1.8c-2.9,0.4-5.8,1.6-8.8,0.5
			c-2.9-1.1-3.7-3.6-3.6-6.1c0-2.8-1.4-2.9-3.4-2.7c-1.4,0.2-2.7,0.6-3.8,1.5c-2.1-0.3-3.5,0.2-3.2,2.6c0.1,1.3-0.4,1.8-1.6,2
			c-0.5,0-0.9,0.1-1.3,0.2c-3.2,0.7-3.9-0.1-3.5-3.3c0.1-0.4,0.2-0.7,0.1-1.1c0-0.4-0.4-0.1-0.1-0.1c0.1,0,0.1,0.1,0.1,0.3
			c0,0.4,0,0.7-0.2,1.1c-0.2,0.5-0.3,1.2-1,1.2s-0.7-0.7-0.9-1.2c-0.1-0.4-0.3-0.7-0.4-1c-0.2-2.5-2-2.3-3.7-2
			c-0.8,0.1-1.5,0.6-2.2,0.9c-2.4,1.4-5,0.5-7.4,0.5c-0.4,0-0.9-0.3-1-0.8c-0.3-0.9-0.1,0.3-0.3,0.1c-0.5,0.4-0.8,0-1.1-0.3
			c-0.6-0.5-1.1-1.2-1.8-1.6c-0.5-0.7-1.1-1.4-1.6-2c-0.8-1.6-2-2.4-3.8-1.4c-0.9,0.2-1.8-1.1-2.7,0.1c-0.9,0.9-0.6,2-0.6,3.1
			c0,5.7-0.1,11.4,0.1,17.1c0.1,2.3-0.8,3.2-3,3.5c-1.8,0.3-3.6,0-5.4,0.4c-1.2-2.1-1.8-4.5-2.5-6.8c0.1-3.6-1.6-6.9-2.2-10.4
			c0-0.2-0.4,0.2-0.7,0c-1.2-1.3-1.2-3.2-1.7-4.7c-1.4-4.2-4.7-6.7-9.1-6.7c-6.5,0-12.9,0-19.4,0c-0.6,0-1.3,0-1.9,0
			c-1.6,0-3.2-0.9-4-2s0.7-2.3,1.5-3.2c4.4-5.7,8.9-11.3,13.5-16.9c2.2-2.6,2.9-5.7,3.4-8.9c0.2-1.2-0.8-1.7-1.7-2.2
			c-9.4-5.2-18.6-10.9-27.7-16.7c-0.2-0.7-0.8-0.9-1.2-1.5c-1.6-2.6-0.3-5.2,2.7-5.3c1.3-0.1,2.5,0,3.8,0c1.6,0,2.8,0.5,3.1,2.4
			c0.6,3.1,3.1,1.7,4.9,1.9c1.8,0.2,2.3-0.9,2.4-2.5c0.3-2.6,0.6-2.3,3.1-2.2C167.4,214.4,170.5,215.5,173.7,215.5z"/>
		<path class="st5" d="M250.9,315.7c-1.9,1.3-4.1,1.9-6.3,1.4c-4.2-0.9-6-3.8-4.4-9.9c0-0.2,0.2-0.3,0.2-0.5c3.4-9.9,2.1-7.9,11.4-8
			c3.1-0.1,4.7,1.6,5.1,5c0.2,3.2,0.7,6.5-1.5,9.3l0,0C253.8,313.7,252.2,314.5,250.9,315.7z"/>
		<path class="st5" d="M220.7,308.5c-4.5-1.9-9.1-1.1-13.7-1.1c-0.6,0-1.2-0.1-1.8,0.4c-1.4,1.5-1.4,1.4-2.8-0.1
			c0.2,1.3,0.4,2.4,0.4,3.5c0,1.5,1.7-1.5,1.3,0.5c-0.2,1-0.7,1.8-0.3,2.9c0.4,0.8,0.4,1.8,0.7,2.6c0.4,1.4,0.4,2.6,0.1,4.1
			c-0.4,2.1,0.1,4.4,0.3,6.7c0.1,0.8-0.2,1.2-0.9,1.3c-0.3,0-0.4-0.4-0.5-0.6c-0.6-3.1,0.4-6.2,0.1-9.4c-0.5-6.4-2.9-12-5.2-17.8
			c-0.2-0.6-0.4-1.2-0.6-1.8c0.1-0.8,0.4-1.4,1.4-1.1c1.1,0.4,2.1,0.1,3.2-0.1c3.1-0.6,3.5-1.4,3.4-4.7c-0.2-5.5-0.2-11-0.1-16.6
			c0-0.6-0.4-1.7,0.7-2.1c0.1,0,0.2,0.1,0.2,0.1c0.1,0.1,0.1,0.2,0.1,0.2c0,5.5,0.1,11.1-0.1,16.6c-0.2,5.9,3.1,9.3,7.6,12.1
			C216.4,305.8,218.9,306.6,220.7,308.5z"/>
		<path class="st5" d="M224.7,299.2c-0.2-3.1,1.8-5.2,3.5-7.3c0.9-1.1,5.4,0.2,7.2,1.8c4.3,3.8,2.3,10.2-0.2,13.2
			c-1.4,1.6-3.3-0.3-5-0.3c-0.9,0-1.9-0.9-2.8-1.4c0.1-0.5,0.4-0.8,0.9-0.8c-0.3-0.1-0.7,0.1-0.9-0.1
			C225.3,303.3,225.2,301.1,224.7,299.2z"/>
		<path class="st5" d="M214.7,279c1.1,0.1,2.2,0.1,2.5,1.6c0.8-0.7-0.2-2,1.2-2.7c-1.1,3.5,1,3.3,3.2,3.2c1.6-0.1,3.2,0,4.8,0
			c-1.3,1.3-1.8,2.9-2.4,4.7c-0.5,1.5-0.4,3.8-3.1,3.6c-2.6-0.2-4.5-1.7-5-4.3C215.5,283.1,215.1,281.1,214.7,279z"/>
		<path class="st5" d="M232.4,282.2c0.7,0.3,1.1,0.9,1.1,1.7c1.1-0.6,0.7-1.9,1.5-2.4c0.5,0,0.4,0.3,0.4,0.5
			c-0.5,1.4-0.9,3.3,0.5,3.9c1.2,0.5,3-0.2,4.4-0.6c0.8-0.2,0.1-1.1,0.2-1.7c0.4-2.3,1.3-2.9,3.9-2.1c-1.8,0.3-3.2,0.8-2.7,3.3
			c0.2,1.3-0.4,3.4-1.6,3.7c-2,0.4-4.5,1.2-6.2-0.3C232.1,286.8,232.8,284.3,232.4,282.2z"/>
		<path class="st5" d="M209.3,275.6c0-0.8-0.1-1.8,1.3-1.2c1,0.4,1.8,1.1,2.9,1.4c0.6,0.2-0.5,0.7-0.4,1.2
			C212.1,276,210.8,275.5,209.3,275.6z"/>
		<g>
			<path class="st5" d="M205.6,335.3c-0.1-0.2-0.1-0.3-0.2-0.5c0.4-0.6,0.9-0.4,1.3-0.4c-2.3-0.5-2.9-1.6-2.9-5.3
				c0.5-4.7,0.8-9.3-0.3-14c-0.5-2.1-1.2-4.1-1.6-6.2c-0.2-1-0.1-2,1.3-1.2c0.4,0.2,0.6,0.5,1.2,0.3c5.5-2.4,10.9-2.1,16.2,0.5
				c1.5,1,3,2.2,5,2.2c0.6,0,1.3,0.3,1.7,0.7c5.1,4.6,11.5,6.8,17.6,9.5c2.2,1,3.9,3.1,6.6,2.9l0,0c0.6,0.7,0,2.2,1.6,2.3
				c3.5,3.7,2.2,9.2-2.6,10.2c-8.1,1.7-16.4,2.3-24.7,1.4c-0.9-0.1-1.8-0.2-2.7-0.2c-4.4-0.8-8.8-0.6-13.2-0.7
				C208.2,336.7,206.8,336.5,205.6,335.3z"/>
			<path class="st5" d="M173.7,215.5c-0.3,1.2-0.8,2-2,0.8c-1.4-1.3-3-1.4-4.7-1.1c-1.3,0.2-2.5,0.3-3.6-0.5s-1.6-0.2-1.7,1
				c-0.5,4-0.5,4-4.7,4c-0.6,0-1.3-0.1-1.9,0c-1.7,0.2-2.3-0.7-2.1-2.2c0.2-1.7-0.6-2.3-2.2-2.1c-1.1,0.1-2.2-0.1-3.3,0
				s-2.7-0.7-3.1,0.8c-0.4,1.3-0.6,2.9,0.7,4.1c0.3,0.3,0.8,0.6,0.2,1.1c-5.2-2.3-10.7-1.5-16.1-1.7c-2.2-0.1-5,0.7-4.8-3.3
				c0.1-1.3-2-0.5-3-1c-0.4-0.2-1.2,0.3-1.3-0.6c-0.1-0.6,0.5-0.9,1-1.1c1-0.5,2.1-0.4,3.2-0.4c12.5,0,25-0.1,37.5,0
				C165.9,213.4,170,213.9,173.7,215.5z"/>
			<path class="st5" d="M266.2,231.5c0.3,2.2-1.8,3.6-2.9,3.3c-2.8-0.6-5.4,0.2-8.1,0.3c-4.4,0.1-8.7-0.9-13.1-0.5
				c-7.9,0.6-15.8,0.4-23.7,0.6c-2.5,0-4.8-0.7-7.3-0.6c-0.8,0-1.2-0.4-1.2-1.2c7.7,0.1,15.5-0.2,23.2,0.3
				c9.1,0.6,18.1-0.5,27.2-0.2C262.4,233.6,264.5,233.1,266.2,231.5z"/>
			<path class="st5" d="M205.6,335.3c4.2,1.6,8.7,0.4,13,1.1c1.5,0.2,3,0.1,4.3,1c-4.9,0-9.9,0.3-14.8-0.3
				C207,337,205.9,336.8,205.6,335.3z"/>
			<path class="st5" d="M311.7,223c0.3-0.6,0.8-1,1.5-1c6.6-0.3,13.2-0.8,19.9-0.6c0,0,0.1,0.1,0.1,0.2c-3.3,0.8-6.6,0.4-9.9,0.8
				C319.5,222.9,315.6,222.9,311.7,223z"/>
			<path class="st5" d="M325.9,213.9c-2.4,0.9-4.8,0.4-7.3,0.5c-5.6,0.1-11.3,0-16.9,0c-0.7,0-1.5,0.2-2.1-0.4
				C308.4,213.9,317.2,213.9,325.9,213.9z"/>
			<path class="st5" d="M192.4,282.7c0.3-0.5,0.6-1,0.9-1.5c0.7,3.1,0.6,6.2,2.4,8.9c0.5,0.8,0,2-0.5,3
				C194.3,289.6,193.4,286.2,192.4,282.7z"/>
			<path class="st5" d="M203.4,328.8c0.2,0.2,0.4,0.4,0.5,0.6c0.6,2.4,0.6,5.2,4.2,5c0.4,0,0.6,0.4,0.5,0.8
				c-0.2,0.8-0.6,0.4-0.9,0.1c-0.7-0.8-1.5-0.3-2.3-0.3C203.4,333.3,202.9,331.2,203.4,328.8z"/>
			<path class="st5" d="M224.7,299.2c0.9,0.5,0.7,1.6,1,2.3c0.7,1.7,1.5,2.8,3.9,2.6c-1,0.5-1.6,0.8-2.2,1.1
				C225.2,303.8,224.3,301.8,224.7,299.2z"/>
			<path class="st5" d="M255.3,312.9c1.7-2.9,0.9-6.2,1.5-9.3C257.9,307,258.1,310.2,255.3,312.9z"/>
			<path class="st5" d="M291.5,271.2c3.6-0.8,7.3-0.5,10.9-0.4C298.8,271.9,295.1,271,291.5,271.2z"/>
			<path class="st5" d="M251.5,323.8c-3.2,1.4-4.6-1.5-6.6-2.9C247.3,321.4,249.4,322.6,251.5,323.8z"/>
			<path class="st5" d="M288.7,214.3c3.2,0,6.5,0,9.7,0c0,0.2,0,0.4,0,0.5c-3.9,0-7.8,0-11.7,0C287.3,214.1,288,214.2,288.7,214.3z"
				/>
			<path class="st5" d="M250.9,315.7c1.1-1.5,2.5-2.5,4.4-2.8C254.3,314.4,252.5,314.8,250.9,315.7z"/>
			<path class="st5" d="M302.4,270.8c1.7-0.7,1.7-2,1.1-3.4c0.9,0.7,1.8,1.5,1.4,2.7C304.5,271.1,303.3,270.9,302.4,270.8z"/>
			<path class="st5" d="M253.1,326.1c-1.5,0.1-1.9-0.4-1.6-2.3C252.5,324.2,252.5,325.4,253.1,326.1z"/>
			<path class="st5" d="M203.2,260.8c4.5-2.7,4.4-7.4,5-11.7c0.2-1.9,0-3.8,0-5.7c1.9,0.7-0.1,3,1.5,3.8c0.8-1.8,2.4-1.1,3.7-1.1
				c1.4,0,1.7,1.5,2.6,2.1c0.2,1-0.9,1.4-1.2,2.2c-0.2,0.2-0.4,0.4-0.6,0.6c-3,4.3-3.1,9.3-3.5,14.2c0.2-0.2,0.1-0.5,0.4-0.6
				c0.6,0.7,0.5,1.5,0.4,2.3c-0.4,1.1,0.2,2,0.4,3.1c0.3,1.6,0,2.7-2,2.4c-4.4,0.5-4.3,0.5-4.4-3.8c0-1.9,0.2-3.8-0.4-5.8
				C204.6,261.6,204.2,261.1,203.2,260.8z"/>
			<path class="st5" d="M209.9,272.4c1.3-0.3,2-1,1.5-2.4c-0.4-1-0.8-2,0.1-3c1.6,4.9,1.6,4.9,6.8,4.9c6,0,12,0.1,17.9,0.1
				c-0.7,0.8-1.7,0.5-2.6,0.5c-5,0-10,0-15,0c-1.8,0-3.5-0.2-5.3,0.8C212.2,273.9,210.8,273.4,209.9,272.4z"/>
			<path class="st5" d="M214.8,250.5c-0.1-1,0.8-1.5,1.2-2.2c0.6-0.2,0.6-2,1.7-0.5C216.7,248.7,215.8,249.6,214.8,250.5z"/>
			<path class="st5" d="M211.1,264.6c-0.1,0.4-0.1,0.7-0.2,1.1c-0.8-3.9,0.1-7.7,1.1-11.4c0.3-1.1,1-2,1-3.2c0-1,0.7,0,1.1,0
				C212.5,255.4,211,259.8,211.1,264.6z"/>
		</g>
	</g>
	<path class="st3" d="M218,247.8c0.6-0.3,1.1-0.6,1.7-0.9c2.5-1.4,5.1-2.5,8.2-2.1c2.9,0.4,5.9,0.8,8.8,1.3c2.2,0.4,3.8,1.7,4.3,4
		c1.1,5.6,1.8,11.3,0.4,17c-0.6,2.4-1.5,5-4.8,4.8c-7.4,0.5-14.7,0-22.1,0.3c-1.2,0-1.7-0.9-2.2-1.8s-0.7-1.9-1-2.8
		c-0.2-0.9-0.1-1.9-0.4-2.8c-0.1-4.8,0.9-9.3,3.1-13.5c0.2-0.4,0.4-0.7,0.7-1C215.7,249.4,216.7,248.3,218,247.8z"/>
	<path class="st3" d="M203.5,260.8c-3,1.1-6.3,0.7-9.4,0.8c-4.2,0.2-7.8-6-6.4-10.1c0.1-0.3,0.1-0.7,0.3-0.8
		c5.3-2.9,8.9-9.1,16.2-7.9c1.4,0.2,2.9,0.4,4.3,0.6c1.3,4.6,1,9.2-0.8,13.7C207,259,205.8,260.6,203.5,260.8z"/>
	<g>
		<path class="st6" d="M341.9,184c-6-2.8-11.9-5.7-17.9-8.4c-11.8-5.4-23.9-9.8-36.5-12.9c-12.8-3.1-25.7-5.8-38.8-7.3
			c-11.2-1.3-22.5-1.8-33.8-0.9c-9.1,0.7-18.1,1.5-27.1,3.1c-7.2,1.2-14.4,2.9-21.5,4.9c-10.9,3.2-21.4,7.4-31.6,12.3
			c-5.5,2.6-11,5.4-16.3,8.5c-2.7,1.6-5.8,1.9-8.6,0.4c-2.9-1.6-3.3-8.1,1.4-10.1c3.9-1.7,7.8-3.5,11.7-5.2
			c13.2-5.7,26.5-10.8,40.3-14.7c10.1-2.8,20.5-4.8,30.9-6.3c9.3-1.4,18.6-2.2,28-2.7c3.6-0.2,7.2-0.4,10.8,0.1
			c13,0.5,25.9,1.9,38.7,4.3c12.9,2.5,25.5,5.8,37.8,10.3c13.2,4.8,26,10.3,38.6,16.5c0.4,0.2,0.8,0.4,1.2,0.6
			c3.8,2.3,4.1,4.6,0.8,7.7C347.3,184.5,344.6,184.9,341.9,184z"/>
		<path class="st6" d="M193.7,57.8c11.9-1.7,23.8-2.4,35.8-2.3c7.6,0.1,15.3-0.1,22.9,0.6c4.7,0.5,9.4,1.1,14,1.6
			c0.6,0.1,1.1,0.2,0.9,1c-0.3,1.6-2.9,3.4-4.6,3.2c-19.4-2.2-38.8-3-58.3-0.4c-1.3,0.2-2.5,0.3-3.8,0.4
			C195.8,62.3,196.5,63.1,193.7,57.8z"/>
		<path class="st6" d="M220.8,61.7c2.5,0,4.9,0,7.4,0c1.9,0,2.9,0.5,2.8,2.8c-0.2,5.1-0.1,5.3-5.3,5.2c-8.6-0.1-17.1,1-25.6,1.4
			c-2.1,0.1-2.3-0.6-2-2.3c0.9-5,0.9-5,6.1-5.6c2.8-0.3,5.6-0.7,8.4-0.8c2.7-0.1,5.5,0,8.2,0C220.8,62.1,220.8,61.9,220.8,61.7z"/>
		<path class="st6" d="M241.5,62.1c6.2,0.2,12.3,0.4,18.4,1.6c1.9,0.4,1.8,1.4,2,2.5c1,4.8,0.8,5.1-4,4.7
			c-7.6-0.7-15.3-1.2-22.9-1.1c-1.9,0-2.5-0.7-2.5-2.5c-0.1-5.8-0.1-5.8,5.7-5.3C239.3,62,240.4,62,241.5,62.1z"/>
		<path class="st6" d="M222.1,126.6c1,0,2,0,3,0c7.6,0.1,5.4-0.8,5.8,6.2c0.1,1-0.3,1.7-1.6,1.6c-7.7-0.2-15.4,0.7-23.2,1.2
			c-2.1,0.1-2.7-0.5-2.9-2.7c-0.3-4.8-0.4-4.6,4.1-5.3C212.3,127,217.2,126.9,222.1,126.6z"/>
		<path class="st6" d="M245.1,22.1c1.3,2.1,0.4,4.4,0.5,6.6c0,0.9-1.1,0.7-1.8,0.7c-8.7,0-17.3,0-26,0c-1.4,0-2-0.5-2.1-1.8
			s-0.1-2.6-0.2-3.8c-0.1-1.2,0.5-1.7,1.6-1.7C226.5,21.8,235.8,21.8,245.1,22.1z"/>
		<path class="st6" d="M241,126.7c5.2,0.1,10.3,0.9,15.5,1.2c2.2,0.2,3.2,0.8,2.7,3.4c-1,5.1-0.8,4.9-6,4.4
			c-6.1-0.6-12.3-1-18.4-1.2c-1.9-0.1-2.2-0.7-2.2-2.3c0.1-5.5,0-5.5,5.5-5.5C239,126.7,240,126.7,241,126.7z"/>
		<path class="st6" d="M201.8,134.6c0.5,1.4-0.5,1.4-1.4,1.6c-5.2,0.8-10.4,1.7-15.5,2.6c-2.4,0.4-4.8,0.8-7.2,1.3
			c-1.3,0.3-1.9-0.2-2.1-1.3c0-0.2-0.1-0.3-0.1-0.5c-1-5-1-4.9,4.1-6.2c6.4-1.6,13-2.6,19.5-3.6c1.3-0.2,2.2,0.1,2.3,1.5
			C201.5,131.5,201.6,133.1,201.8,134.6z"/>
		<path class="st6" d="M129.5,54.6c6.7-2.5,13.8-3.9,20.7-5.9c2-0.5,2.7,0.2,2.9,1.9c0.1,0.9,0.3,1.8,0.5,2.7
			c0.3,1.2-0.2,1.8-1.4,2.1c-8.4,1.9-16.6,4.1-24.8,6.8c-2.3,0.8-3-0.2-3.4-2c-0.1-0.3,0-0.6-0.1-0.8c-1.4-2-0.4-3.1,1.5-3.8
			C126.8,55.1,128.2,55,129.5,54.6z"/>
		<path class="st6" d="M234.8,117.3c3.6,0.2,7.3,0.5,10.9,0.6c1.4,0,1.9,0.5,1.9,1.9c0,5.5,0.1,5.5-5.3,5.3
			c-6.6-0.3-13.3-0.6-19.9,0c-2.1,0.2-3.1-0.5-2.8-2.7c0.1-0.4,0-0.9-0.1-1.4c-0.7-2.7,0.2-4.2,3.2-3.7
			C226.7,117.1,230.7,117.1,234.8,117.3z"/>
		<path class="st6" d="M263.9,128.8c6.7,1.1,13.5,2.3,20.3,3.9c1.8,0.4,2.3,1.4,1.5,2.9c-0.9,1.6,0.1,4.1-1.6,5
			c-1.5,0.8-3.5-0.5-5.2-0.9c-5.7-1.3-11.5-2.2-17.3-3.1c-1-0.2-1.2-0.6-1.2-1.4c0.1-1.8,0.3-3.6,0.5-5.4
			C261.3,128.1,262.7,129.1,263.9,128.8z"/>
		<path class="st6" d="M224.7,37.7c-7.3,0.5-14.7-0.2-22,1.4c-1.2,0.3-1.9,0.1-2-1.6c-0.4-5.4-0.5-5.5,5-5.8
			c7.4-0.4,14.7-0.6,22.1-0.9c1.9-0.1,3.3,0.1,3.2,2.7c-0.2,3.8-0.2,4-3.3,4.1C226.7,37.7,225.7,37.7,224.7,37.7z"/>
		<path class="st6" d="M249.3,123c0.3-5,0.3-5.1,5.4-4.4c6.5,0.9,12.9,1.7,19.3,3.1c4.1,0.9,1.6,3.4,1.7,5.3
			c0.1,2.3-1.6,2.2-3.2,1.9c-6.9-1.6-14-2-21-2.9C249.7,125.6,249,124.9,249.3,123z"/>
		<path class="st6" d="M321.9,50.3c-3.6-0.9-7.2-1.9-10.8-2.7c-3.3-0.8-6.6-1.8-10.1-1.9c-1.8-0.1-3.4-1.1-2.7-3.5
			c0.3-0.9,0.5-1.9,0.6-2.9c0.2-1.4,1-1.8,2.3-1.4c7,1.8,14.2,3.2,21.1,5.2c2.4,0.7,3.4,1.7,2.2,4.1c-0.3,0.6-0.5,1.2-0.6,1.8
			C323.8,50.1,323.1,50.5,321.9,50.3z"/>
		<path class="st6" d="M310.3,48.9c4.6,1.3,9.3,2.5,13.9,3.8c3.4,1,6.7,2.1,10.1,3.2c1.9,0.6,2.4,1.5,1.8,3.7
			c-0.8,3.2-2.3,3.2-4.7,2.3c-7.3-2.6-14.7-4.6-22.1-6.6c-3.3-0.9-0.7-2.9-1-4.4C308,50.1,308.4,48.6,310.3,48.9z"/>
		<path class="st6" d="M165.1,68.8c4.5-0.4,4.5-0.4,7,6.2c-7.7,1.9-15.4,3.8-23.2,5.7c-2.9,0.7-1.8-2.3-2.9-3.3
			c-1.7-3.4-1.5-4,2.3-5c0.9-0.2,1.7-0.5,2.6-0.8C155.6,70.6,160.2,69,165.1,68.8z"/>
		<path class="st6" d="M150.7,146.3c0.3,1.1-0.5,1.5-1.3,1.7c-7.2,2.4-14.3,5-21.2,8.1c-1.1,0.5-1.8,0.2-2.3-1c-2.4-5.6-3-4,2.1-6.5
			c5.6-2.7,11.5-4.8,17.4-7c2.4-0.9,4.1-1,4.5,2.1C150.1,144.6,150.8,145.3,150.7,146.3z"/>
		<path class="st6" d="M162.6,113.5c0-0.4,0-0.9,0-1.3c1.3-1.4-0.3-2.7-0.3-4.1c0-1.3,0-1.9,1.4-2.3c6.4-1.7,12.8-3.2,19.3-4.4
			c1.9-0.3,2.9,0.1,3.7,1.9c2.3,4.9,2.5,4.8-2.9,5.6c-6.1,0.9-12.1,2.3-18,3.9C164.7,113.3,163.4,112.2,162.6,113.5z"/>
		<path class="st6" d="M236.2,37.6c-3.2-0.1-4.8-2.8-3.5-5.8c0.4-1,1.3-0.9,2.1-0.9c7.9,0.2,15.8,0.4,23.6,0.6
			c2.1,0.1,3.3,1,2.2,3.2c-0.6,1.3,0.6,3.2-0.8,3.7c-1.3,0.5-3,0-4.5-0.1c-2.8-0.1-5.6-0.3-8.4-0.4
			C243.4,37.4,239.8,38.2,236.2,37.6z"/>
		<path class="st6" d="M124.5,54.4c-3.7,1.3-7.4,2.7-11.1,4c-1,0.4-2.6,1.4-3.2,0.5c-1-1.6-1.8-3.5-1.8-5.6c0-0.7,0.9-0.8,1.5-1
			c7.2-2.5,14.4-5.4,21.8-7.5c1.6-0.5,2.4-0.2,2.9,1.6c1.2,4.5,1.3,4.5-3.4,5.8c-1.8,0.5-3.6,1.1-5.4,1.7
			C125.5,54.3,125.1,54.5,124.5,54.4z"/>
		<path class="st6" d="M315.3,37.6c0.1-0.2,0.1-0.3,0.2-0.5c1.1-5,1.1-5,6-3.6c5.6,1.5,11.2,3.1,16.8,4.5c1.9,0.5,2.5,1,1.8,3.1
			c-1.7,4.9-1.5,4.9-6.5,3.5c-5.5-1.6-10.8-3.5-16.4-4.8C316.1,39.6,314.8,39.2,315.3,37.6z"/>
		<path class="st6" d="M231.4,39.3c3.8,0,7.6,0,11.5,0c1.8,0,2.5,0.6,2.4,2.6c-0.3,4.4-0.2,4.2-4.8,4c-6.3-0.3-12.5-0.3-18.8,0.2
			c-1.3,0.1-3.2,0.8-3.7-0.6c-0.6-1.6-0.4-3.6-0.2-5.3c0.1-1.1,1.5-0.7,2.3-0.9c0.3-0.1,0.5,0,0.8,0
			C224.3,39.2,227.9,39.2,231.4,39.3L231.4,39.3z"/>
		<path class="st6" d="M127.4,125.7c-0.3,0.1-0.7,0.1-1,0.3c-2,1.2-2.7,0.9-2.9-1.6c-0.2-4.7-0.4-4.6,4-6.2c5.4-2,10.7-4.1,16-6.1
			c1.3-0.5,3.3-1.9,3.9,0.8c1,4.6,2,4.9-1.6,6c-5.3,1.6-10.4,3.5-15.5,5.7C129.5,125.2,128.4,125.3,127.4,125.7z"/>
		<path class="st6" d="M145.4,38.1c0.2,1.1-0.5,1.4-1.4,1.7c-6.7,1.8-13.5,3.6-20.1,5.9c-0.9,0.3-1.6,0.1-1.9-0.9
			c-0.1-0.2-0.1-0.4-0.1-0.5c-1.8-5.2-1.8-5.2,3.4-6.8c5.3-1.6,10.6-3.1,15.8-4.7c2.1-0.7,3.3-0.4,3.5,2.1
			C144.7,35.8,145.1,36.9,145.4,38.1z"/>
		<path class="st6" d="M246.7,141c0.2-4.2,0.2-4.1,4-3.8c6.7,0.6,13.3,1.7,19.9,2.7c1.8,0.3,2.7,0.9,1.9,2.8
			c-0.3,0.7-0.3,1.4-0.3,2.2c-0.2,1.7-0.7,2.2-2.6,1.9c-6.5-1-13.1-1.9-19.7-2.6C247.5,144,245.6,143.8,246.7,141z"/>
		<path class="st6" d="M219.3,140.4c0.8,2.7-0.8,2.8-3.2,3c-7.1,0.5-14.1,1.3-21.2,1.9c-0.8,0.1-2,0.7-2.4-0.5
			c-0.5-1.6-0.9-3.3-0.9-5c0-0.7,1.4-0.7,2.1-0.8c7.3-0.8,14.6-1.6,21.9-2.3C219.3,136.3,219.3,136.4,219.3,140.4z"/>
		<path class="st6" d="M162.4,42.9c0.1,1.1-0.2,1.5-1.4,1.8c-7,1.5-14,2.9-20.8,5.1c-2,0.7-2.9-0.1-3.5-2.1c-1.1-4-1.2-4.1,2.9-5.1
			c6.3-1.5,12.7-3,19.1-4.4C161.8,37.6,162.4,38.4,162.4,42.9z"/>
		<path class="st6" d="M333,149.7c1,0.5,1.7,0.8,2.3,1.1c5.7,3,11.5,6.1,17.2,9.2c0.9,0.5,2.4,0.9,2,2.2c-0.6,1.8-1.4,3.6-3,4.7
			c-0.6,0.4-1-0.3-1.4-0.5c-6-3-11.9-6.4-18.2-8.8c-1.8-0.7-2.3-1.7-1.4-3.6C331.2,152.5,331.8,150.9,333,149.7z"/>
		<path class="st6" d="M286.4,139.8c0.3-1.6,0.6-3.2,0.9-4.8c0.3-1.2,1.2-1.3,2.2-1c6.4,1.7,12.8,3.7,19.1,5.8c0.9,0.3,1.2,1,1,1.9
			c-0.1,0.3-0.3,0.5-0.3,0.7c-1.5,5.1-1.5,5.3-6.4,3.8c-4.9-1.6-9.9-2.8-14.8-4.2C286.9,141.7,286.2,141.2,286.4,139.8z"/>
		<path class="st6" d="M325.5,49.9c0.1-0.3,0.2-0.5,0.2-0.8c1.2-4.5,1.3-4.7,5.7-3.3c5.8,1.8,11.5,3.8,17.2,5.8
			c1.7,0.6,2.4,1.5,1.5,3.5c-1.7,4.1-1.6,4.1-5.9,2.8c-5.9-1.8-11.5-4.5-17.5-5.9C325.7,51.7,325.3,51,325.5,49.9z"/>
		<path class="st6" d="M98.8,98.5c0.1,1.2-0.8,1.4-1.4,1.7c-5.2,2.5-10.4,5-15.6,7.6c-1.2,0.6-1.9,0.3-2.8-0.7
			c-4.7-4.8-4.8-4.7,1.2-7.6c4.1-2,8.2-3.9,12.1-5.9c1.7-0.9,2.7-0.5,3.6,0.9C96.9,95.8,97.9,97.2,98.8,98.5z"/>
		<path class="st6" d="M221.8,47.8c1.9,0,3.8,0.1,5.7,0c2.6-0.2,3.8,0.6,3.5,3.4c-0.1,1.6-0.3,2.3-2.2,2.5c-8,0.5-16,0.4-24,1.3
			c-3.4,0.4-2.5-2.4-2.9-4c-0.5-2,1.1-1.8,2.4-1.9C210.2,48.3,216,47.8,221.8,47.8z"/>
		<path class="st6" d="M157.9,128.8c0.8-0.2,1.1,0.2,1.3,0.9c0.4,1.3,0.8,2.6,1.3,3.9c0.3,0.9,0,1.4-0.8,1.6
			c-7.3,1.9-14.2,4.9-21.3,7.2c-3,1-2.3-2-3.2-3.3c-0.7-0.9-0.7-2,1-2.7c6.8-2.7,13.8-5.2,20.7-7.5
			C157.2,128.9,157.6,128.9,157.9,128.8z"/>
		<path class="st6" d="M174.1,139.4c-0.2,0.7,0.1,1.4-1.2,1.7c-6,1.6-12,3.4-17.9,5.2c-1.8,0.5-2.6-0.3-3.1-1.9
			c-1.4-4.4-1.5-4.5,3-5.8c5.2-1.6,10.4-3,15.6-4.5c1.7-0.5,2.6-0.3,2.8,1.6C173.4,136.9,173.8,138.1,174.1,139.4z"/>
		<path class="st6" d="M336.6,120.9c-0.3,2-0.5,3.2-0.6,4.5c0,1.5-0.9,1.4-1.8,1c-6.8-2.9-13.9-5.2-20.9-7.7c-1.1-0.4-1.4-1-1-2.2
			c1.4-4.6,0.1-5.1,5.8-3.2c5.5,1.9,11.1,3.9,16.6,5.9C335.8,119.7,336.8,120.1,336.6,120.9z"/>
		<path class="st6" d="M218.4,92.9c0.5,2.2-0.3,3.2-3.1,3.2c-6.6,0-13.1,0.8-19.6,1.8c-1.8,0.3-2.7,0.1-2.2-2.2
			c0.9-4.8,1-4.8,5.9-5.1c5.1-0.3,10.1-1,15.2-1.2C218.3,89.3,218.2,89,218.4,92.9z"/>
		<path class="st6" d="M211.9,39.6c1.3,0.2,3-0.7,3.5,0.5c0.6,1.6,0.6,3.6,0.6,5.3c0,0.8-1.1,0.9-1.8,0.9
			c-6.8,0.6-13.5,1.3-20.3,1.9c-1,0.1-1.6-0.3-1.7-1.3c-0.2-1.3-0.3-2.7-0.4-4.1c-0.1-1.4,0.9-1.6,2-1.7
			C199.8,40.8,206,40.2,211.9,39.6z"/>
		<path class="st6" d="M279.3,122.9c7.1,1.5,13.8,3.3,20.3,5.2c1.8,0.5,1.8,1.8,1.2,2.9c-0.7,1.2,0.4,3.9-2.7,3.4
			c-2.2-0.4-4.4-1-6.6-1.6c-4.1-1.1-8.2-2.1-12.4-3c-2.2-0.4-2.5-1.9-1.8-3.6C278,125.1,277,122.7,279.3,122.9z"/>
		<path class="st6" d="M233.4,136.6c3.2,0,6.4,0,9.6,0c1.7,0,2.3,0.7,2.2,2.3c-0.1,1.2-0.3,2.3-0.4,3.5c-0.1,1.4-1.2,1.3-2,1.2
			c-6.4-0.7-12.7-0.6-19.1-0.5c-3,0.1-2.4-1.9-2.7-3.7c-0.2-1.8-0.1-3.2,2.4-3.1c3.4,0.1,6.7,0,10.1,0
			C233.4,136.4,233.4,136.5,233.4,136.6z"/>
		<path class="st6" d="M257.4,48.5c3,1.1,0.9,3.4,1,5.1c0.1,1.6-1.4,1-2.3,1c-2,0-4-0.1-6-0.2c-2.5-0.6-5.1,0.2-7.6-0.5
			c-2.5-0.1-5.1-0.2-7.6-0.2c-2.7-0.1-2.4-2-2.5-3.8c-0.2-2.1,1.1-2.2,2.5-2.1c5.2,0.1,10.3,0.2,15.5,0.2
			C252.8,48.6,255.2,47.7,257.4,48.5z"/>
		<path class="st6" d="M211.8,72c0.8,0,1.3,0.1,1.7,0c2.4-0.3,4-0.4,4,3.1c0,3.9,0.5,3.9-3.4,4.3c-5.3,0.5-10.7,0.8-16,1.3
			c-2.8,0.3-2.3-2.4-2-3c0.8-2.2,1-5,4.9-4.8C204.7,72.9,208.4,72.1,211.8,72z"/>
		<path class="st6" d="M327.3,147.1c1.1,0.8,3.3,0.4,3.2,2.2c0,2.1-1.6,3.8-2.5,5.6c-0.3,0.6-1.4,0.2-2-0.1
			c-4.9-1.9-9.7-3.9-14.6-5.8c-1.3-0.5-1.8-1-1.3-2.6c2.2-7.1,0.4-5.8,7.2-3.5c2.1,0.7,4.2,1.6,6.3,2.4
			C325,145.6,326.3,146.1,327.3,147.1z"/>
		<path class="st6" d="M245.6,79.7c-0.3-0.1-0.7-0.1-1-0.2c-0.6-2.2-0.3-4.3-0.1-6.5c0-1.6,1.1-1.3,2.1-1.3
			c4.2,0.3,8.5,0.6,12.7,0.8c2.4,0.1,4.4,0.5,3.9,3.7c-0.1,0.4,0.3,0.9,0.4,1.3c0.8,4,0.4,4.5-3.6,3.7c-1.8-0.3-3.6-0.5-5.4-0.5
			C251.6,80.5,248.6,80,245.6,79.7z"/>
		<path class="st6" d="M344.6,69.6c-0.6,1.5-1.2,3.1-2,4.7c-0.4,0.8-1,0.1-1.4,0c-6.4-2.2-12.9-4.4-19.3-6.7c-3-1.1-0.8-3.2-0.6-4.8
			c0.2-1.6,1-1.7,2.7-1.3c6.5,1.6,12.5,4.7,19,6.5C343.8,68.1,344.7,68.4,344.6,69.6z"/>
		<path class="st6" d="M140.6,64.7c0.2,1.4-0.9,1.5-1.8,1.8c-7.2,2.3-14.5,4.3-21.5,7.3c-1.8,0.8-1.9-0.7-2.3-1.7
			c-0.6-1.5-1.6-3.1,0.8-4c5.9-2,11.8-4,17.7-6c0.9-0.3,1.9-0.6,2.8-0.9C139.3,60.4,140.7,61.4,140.6,64.7z"/>
		<path class="st6" d="M187.5,139.9c1.6-0.1,2.3,0,2.3,1.1c0.1,1,0.3,2,0.6,2.9c0.5,1.5-0.1,2.2-1.6,2.4c-6.3,0.8-12.5,2.4-18.7,3.8
			c-1.8,0.4-3,0.2-3.3-1.9c-0.2-1.7-1.6-3.5,1.7-4.2C175,142.4,181.6,141.2,187.5,139.9z"/>
		<path class="st6" d="M262.7,98.4c-5.4-1-11.2-1.3-17-1.9c-3-0.3-2-2.6-2-4.4c0-1.9,0.6-2.7,2.8-2.4c5.6,0.8,11.3,1.3,17,2
			c1.7,0.2,3.9,4.9,2.8,6.2C265.6,99,264.2,98.2,262.7,98.4z"/>
		<path class="st6" d="M276.6,141.1c6,1.1,11.9,2.6,17.7,4.2c1.1,0.3,1.3,1.1,1.1,2.1c-0.8,5-1.2,5.2-6.1,3.9
			c-4-1.1-8.1-1.9-12.2-2.9c-1.2-0.3-3-0.2-3.3-1.5c-0.4-1.8,0.4-3.8,0.9-5.6C275,140.7,276,141,276.6,141.1z"/>
		<path class="st6" d="M246.9,43.2c0.2-3.8,0.2-3.8,3.8-3.5c5.7,0.5,11.4,1.2,17,1.7c1.8,0.2,2.4,1.2,1.9,2.8
			c-0.4,1.5,0.7,4.2-2.5,3.8c-6.2-0.7-12.4-1.3-18.7-1.6C246,46.1,247,44.3,246.9,43.2z"/>
		<path class="st6" d="M165.8,150.4c0,0.8-0.7,0.9-1.3,1.1c-6.7,2.1-13.4,4.3-20.1,6.4c-1.8,0.5-1.7-1.3-2.2-2.1
			c-1-1.8-1.3-3.1,1.5-4.1c6-2,12-3.9,18-5.8c1.9-0.6,2.9-0.5,3.2,1.7C165,148.5,165.5,149.4,165.8,150.4z"/>
		<path class="st6" d="M317.4,154.2c-0.4,1.3-0.7,2.6-1.3,3.9c-0.5,1.3-1.7,1.2-2.8,0.8c-5.2-1.8-10.4-3.6-15.7-5.2
			c-1.7-0.5-1.9-1.4-1.5-2.8c1.1-4.3,1.2-4.6,5.3-3.4c4.8,1.4,9.6,3.1,14.4,4.8C316.4,152.6,317.7,152.9,317.4,154.2z"/>
		<path class="st6" d="M303.9,129.5c3.2,1.1,6.3,2.1,9.4,3.2c3,1.1,5.9,2.3,8.9,3.4c1.4,0.5,2.2,1.1,1.3,2.7c-0.5,1-0.8,2-1.2,3
			c-0.4,0.9-1,1.1-1.9,0.7c-5.7-2.2-11.4-4.6-17.3-6.4c-1.4-0.4-2-1.2-1.2-2.6c0.5-0.8,0.7-1.7,0.7-2.6
			C302.6,130,303.2,129.6,303.9,129.5z"/>
		<path class="st6" d="M339.2,163.5c-0.6,1.3-1.2,2.7-1.9,3.9c-1.2,2-2.4,0.2-3.4-0.2c-4.7-1.8-9.3-3.9-14-5.7
			c-2.3-0.9-2.8-1.8-1.9-4.2c1.3-3.3,1.2-3.5,4.4-2.2c5,2.1,9.9,4.4,14.8,6.6C338.1,162.1,339,162.4,339.2,163.5z"/>
		<path class="st6" d="M69.5,87.2c-0.6,0-0.9-0.3-1.2-0.7c-3.2-4-3-5.3,1.4-7.7c3.9-2.1,7.8-4,11.7-6.1c1.4-0.8,1.8-0.4,2.3,0.9
			c1.9,4.6,2,4.7-2.6,7.2c-3.6,2.1-7.3,4-11,6C70,87,69.7,87.1,69.5,87.2z"/>
		<path class="st6" d="M393.2,81.9c-0.8,1.7-1.6,3.5-2.9,5c-0.6,0.6-1.2,0.1-1.7-0.2c-4.5-2.7-8.9-5.5-13.7-7.6c-1.3-0.6-2-1.5-1-3
			c0.5-0.7,0.8-1.4,1.1-2.2c0.7-1.6,1.4-2.1,3.2-1.1c4.4,2.5,8.9,4.8,13.3,7.2C392.3,80.4,393.1,80.9,393.2,81.9z"/>
		<path class="st6" d="M165.2,59c0.2,1-0.2,1.4-1.2,1.6c-6.6,1.3-13.2,2.8-19.8,4.5c-2.3,0.6-1.9-1.7-2.4-2.8
			c-0.4-0.9-1.2-2.2,0.7-2.7c3.5-0.9,7-1.9,10.5-2.6c2.6-0.5,5.1-1.3,7.7-1.6C164.5,54.9,165.2,55.3,165.2,59z"/>
		<path class="st6" d="M121.3,167.1c-1.4-0.8-1.6-2.5-2.3-3.8c-0.7-1.4,0.5-1.6,1.2-1.9c5.6-2.7,11.4-5,17.2-7.3
			c2.2-0.9,2.5,0.5,3,1.8s1.6,2.9-0.7,3.8c-4.5,1.8-9.1,3.6-13.6,5.4C124.5,165.7,123,166.4,121.3,167.1z"/>
		<path class="st6" d="M120.9,127.3c0.2,1-0.6,1.2-1.2,1.5c-5,2.2-10.1,4.4-15.1,6.7c-1.2,0.5-1.7,0.3-2.4-0.8
			c-2.3-3.8-2.2-4.4,1.9-6.3c3.7-1.7,7.4-3.4,11.1-5C117.3,122.6,120.8,125,120.9,127.3z"/>
		<path class="st6" d="M143.9,99.8c0.3,2-1.1,2.1-1.8,2.4c-3.8,1.4-7.7,2.6-11.5,4c-1.6,0.6-2.3,0.1-2.9-1.3c-2-5-2-5,3.2-6.8
			c3.1-1.1,6.2-2,9.3-3.2c1.9-0.7,2.7-0.1,3,1.7C143.3,97.8,143.7,99,143.9,99.8z"/>
		<path class="st6" d="M223.4,97.7c0.9,2,0.2,4.1,0.4,6.2c0.1,1.1-0.7,1-1.5,1c-4.3,0.2-8.7,0.3-13,0.8c-2,0.2-2.5-0.7-3-2.1
			c-0.1-0.2-0.1-0.4-0.1-0.5c-0.6-3.9-0.1-4.6,3.8-5c1-0.1,2-0.2,3-0.2C216.5,97.3,219.9,97.3,223.4,97.7z"/>
		<path class="st6" d="M120.2,57.8c1-0.2,1.5,0.1,1.7,1s0.4,1.8,0.8,2.6c0.9,1.7,0.4,2.7-1.4,3.2c-4.3,1.4-8.5,3-12.6,4.9
			c-1.4,0.7-2.4,0.3-3.1-1.3c-1.6-4-1.4-4.5,2.6-5.9c3.4-1.2,6.7-2.6,10.1-3.9C118.9,58.1,119.5,57.6,120.2,57.8z"/>
		<path class="st6" d="M254.9,23.6c0-0.9,0.6-1,1.3-1c4.6,0.2,9.2,0.5,13.9,0.7c1.5,0.1,1.9,0.8,1.7,2.1c0,0.1,0,0.2,0,0.3
			c-0.4,5.2-0.4,5.1-5.5,4.7c-3.7-0.3-7.6,0.3-11.2-1C254.4,27.5,254.7,25.6,254.9,23.6z"/>
		<path class="st6" d="M206,26.9c0.9,2.7-0.6,3.5-2.9,3.4c-3.3-0.1-6.5,0.5-9.7,1.1c-2,0.4-3-0.1-3.1-2.4c-0.2-5.4-0.3-5.4,5.2-5.9
			c2.4-0.2,4.9-0.1,7.4-0.4c2.5-0.4,3.3,0.6,3.2,2.9C206,26,206,26.4,206,26.9z"/>
		<path class="st6" d="M364.4,75.8c1.4,0.6,2.7,1.2,4,1.8c3.5,1.7,6.9,3.5,10.4,5.3c1.2,0.6,2.2,1.7,1.1,3c-1,1.1-0.7,4.1-3.7,2.7
			c-4.5-2.2-9.1-4.3-13.7-6.4c-0.1,0-0.1-0.1-0.2-0.2c-1.1-0.7-0.6-1.6-0.2-2.4C362.8,78.3,362.7,76.5,364.4,75.8z"/>
		<path class="st6" d="M337,114.3c0,0.7,0,1.5,0,2.2c-0.1,1.3-0.6,1.8-1.9,1.2c-4.3-1.8-8.6-3.3-13.1-4.6c-3-0.9-1.8-2.9-1.3-4.8
			c0.5-2.1,1.4-2.9,3.7-2c3.2,1.3,6.5,2.3,9.8,3.5C337.2,110.9,337.2,110.9,337,114.3z"/>
		<path class="st6" d="M216.8,80.8c1.2,0,2.4,0.1,3.5,0c2.9-0.5,3.5,0.8,3.5,3.5c0,2.4-0.6,3.3-3.1,3.1c-4.5-0.4-8.9,0.4-13.4,0.7
			c-1.9,0.1-2.6-0.4-2.5-2.3c0-1.3-0.8-2.7,0.2-3.9c2.6-1.3,5.5-0.6,8.3-0.8C214.4,81,215.6,81.3,216.8,80.8z"/>
		<path class="st6" d="M114.7,47.5c0.3,1.2-0.4,1.4-1.1,1.7c-4.1,1.5-8.1,3.1-12.2,4.7c-0.7,0.3-1.3,0.2-1.6-0.6
			c-0.7-1.8-1.4-3.5-2-5.3c-0.3-1,0.6-1.2,1.3-1.5c3.8-1.4,7.6-2.8,11.4-4.3c1.4-0.6,2.2-0.3,2.7,1.2
			C113.6,44.9,114.2,46.3,114.7,47.5z"/>
		<path class="st6" d="M279.6,94.3c4.9,1.1,9.5,2.1,14.1,3.1c1,0.2,1.4,0.8,1,1.8c-0.1,0.2-0.1,0.5-0.2,0.8
			c-0.9,4.5-0.9,4.5-5.3,3.4c-4-1-8.1-2-12.1-2.7c-1.8-0.3-1.7-1.1-1-2.1C277,97,277.1,94.4,279.6,94.3z"/>
		<path class="st6" d="M96.6,121c-0.8,0.3-0.9-0.5-1.2-0.9c-3.3-4.5-3.1-5.4,2-7.7c2.1-0.9,4.1-2,6-3.1c2.1-1.2,3.6-0.9,5,1.2
			c2.7,3.8,2.7,3.9-1.5,5.8c-3,1.3-5.9,2.6-8.9,4C97.6,120.5,97.1,120.8,96.6,121z"/>
		<path class="st6" d="M338.7,94.6c-0.3,6.2-0.3,6.2-5.6,4.3c-2.5-0.9-4.9-1.8-7.4-2.7c-1.2-0.4-1.4-1.1-1.1-2.3
			c1.6-6.4,2-6.7,8.1-4.5c1,0.4,2,0.8,3,1.2C338.1,91.3,339.7,92.3,338.7,94.6z"/>
		<path class="st6" d="M154.7,37.3c-0.1,0-0.2,0.1-0.3,0c-2.2-1.5-1.4-4-2.2-6c-0.5-1.3,0.6-1.5,1.5-1.7c3.8-0.8,7.6-1.5,11.4-2.4
			c1.1-0.3,1.7,0,1.9,1.2c0.3,1.6,0.6,3.2,0.9,4.8c0.2,0.9-0.2,1.6-1.2,1.8C162.7,35.8,158.7,36.6,154.7,37.3L154.7,37.3z"/>
		<path class="st6" d="M299.8,80.3c-0.7,2.4-1.4,4.6-2.1,6.8c-0.2,0.5-0.5,0.9-1.2,0.7c-3.7-0.9-7.4-1.7-11.1-2.6
			c-1.1-0.3-1.5-0.9-0.8-2c0.4-0.7,0.8-1.4,1.2-2.1c2.5-4.2,2.5-4.3,7.3-3.3c1.8,0.3,3.6,0.7,5.3,1.2
			C299,79.3,299.9,79.4,299.8,80.3z"/>
		<path class="st6" d="M296.5,113.8c-5.1-1.2-9.9-2.3-14.6-3.5c-0.7-0.2-0.9-0.7-0.9-1.5c0-4.6,0.9-5.1,5.5-4.2
			c3.5,0.7,7.1,1.5,10.5,2.4c1,0.3,2.3,0.7,1.6,2.2C297.8,110.8,298.7,113.1,296.5,113.8z"/>
		<path class="st6" d="M354.5,65.5c-0.4,1-1,2.6-1.7,4c-0.4,0.7-1.2,0.3-1.7,0c-4.2-1.7-8.4-3.4-12.6-5c-1.7-0.7-2.2-1.6-1.3-3.3
			c0.4-0.7,0.5-1.5,0.8-2.3c0.3-0.9,0.6-1.4,1.7-0.9c4.6,1.8,9.2,3.6,13.9,5.4C354.2,63.6,354.8,64.1,354.5,65.5z"/>
		<path class="st6" d="M122.5,113.7c-1.3-3.5,2.3-3.2,4-4.1c2.8-1.4,6-2.1,8.9-3.4s3.1,1,3.8,2.6c0.8,1.8,0.6,2.9-1.5,3.7
			c-3.9,1.3-7.6,2.8-11.4,4.3C122.6,118.2,122.6,118.2,122.5,113.7z"/>
		<path class="st6" d="M357.8,53.6c-3.7-1.4-7.4-2.9-11.1-4.3c-0.9-0.3-0.8-0.8-0.5-1.7c0.5-1.8,1-3.9,2.2-5.1
			c1.6-1.6,3.2,0.6,4.8,1.1c2.4,0.7,4.7,1.6,7.1,2.5c1.3,0.5,2.1,1,1.1,2.6c-0.7,1.1-1.1,2.4-1.6,3.7
			C359.5,53.1,359.1,53.9,357.8,53.6z"/>
		<path class="st6" d="M317.3,97.1c0.3-1.6,1.4-1.5,2.5-1.1c4.2,1.4,8.4,3,12.6,4.4c1.4,0.5,1.7,1.2,1.1,2.5c-0.4,1-0.8,2-1.2,3
			c-0.4,0.8-0.8,1.3-1.9,0.9c-4.3-1.5-8.6-2.9-12.8-4.4c-0.7-0.2-1.4-0.5-1.3-1.5C316.7,99.7,316.4,98.2,317.3,97.1z"/>
		<path class="st6" d="M243.8,81.4c3.4,0.2,6.7,0.4,10.1,0.7c1.5,0.1,3.1,0.3,2.6,2.5c-0.4,1.7,0.7,4.5-3,4c-4-0.5-8-0.7-12-0.8
			c-3-0.1-2.1-2.3-2.3-3.9c-0.1-1.9,0.5-3,2.7-2.5C242.5,81.4,243.2,81.4,243.8,81.4L243.8,81.4z"/>
		<path class="st6" d="M305.7,37c-4.1-0.8-8.2-1.6-12.3-2.4c-0.7-0.1-1.1-0.6-0.9-1.4c0.1-0.5,0.1-1.1,0.2-1.6
			c0.5-4.2,0.5-4,4.7-3.6c3.1,0.3,6,1.3,9.1,1.6c1.8,0.2,2.5,1.1,1.8,2.9c-0.3,0.8-0.5,1.8-0.6,2.7C307.6,36.7,307.2,37.5,305.7,37z
			"/>
		<path class="st6" d="M168.8,102.7c-2.9,0-1.8-2.8-2.5-4.3c-0.8-1.7,0.6-1.9,1.8-2.2c3.6-0.8,7.3-1.4,10.8-2.5
			c2.6-0.8,3.4,0.7,4.2,2.4c1.5,3.4,1.5,3.4-2.4,4.1C176.9,101,173,101.9,168.8,102.7z"/>
		<path class="st6" d="M157.6,54.3c-1.7,0.3-2-0.4-2.3-1.4c-1.2-5.1-1.2-5.1,4.2-6.1c2.7-0.5,5.3-1.1,7.9-1.7
			c1.9-0.5,2.9,0.2,3.1,2.1c0.1,1,0.1,2,0.4,2.9c0.4,1.2-0.3,1.5-1.1,1.7C165.6,52.7,161.4,53.5,157.6,54.3z"/>
		<path class="st6" d="M120.3,93.4c-0.2-1,0.3-1.6,1.2-2.1c3.1-1.6,6.5-2.3,9.7-3.4c0.7-0.2,1.5-0.2,1.8,0.7
			c0.5,1.5,1.2,3.1,1.6,4.6c0.3,1-0.2,1.7-1.2,2.1c-3.4,1.4-7,2.4-10.4,3.9c-1,0.5-2.3,0.4-2.2-1.5
			C120.9,96.3,120.5,94.9,120.3,93.4z"/>
		<path class="st6" d="M239.2,101.7c0-4,0.1-4.1,3.7-3.8c3.2,0.2,6.3,0.5,9.5,0.7c2,0.1,3,1,2.4,3.2c-0.2,0.9-0.4,1.8-0.4,2.7
			c0,1.3-0.8,1.4-1.8,1.4c-4-0.3-8-0.7-11.9-1C237.9,104.7,239.7,102.6,239.2,101.7z"/>
		<path class="st6" d="M403.7,78.7c-0.9,1.4-1.7,3-2.8,4.5c-0.6,0.8-1.3,0.1-1.9-0.3c-2.9-1.8-5.9-3.6-8.8-5.4c-3.3-2-3.2-2-1.5-5.4
			c0.8-1.7,1.7-2.2,3.5-1.2c3.4,1.9,6.9,3.5,10,5.9C402.8,77.2,403.8,77.5,403.7,78.7z"/>
		<path class="st6" d="M74.4,74.2c-1.7-0.5-1.7-2.3-2.4-3.5c-0.6-1.1-0.4-1.9,0.7-2.5c4-2.3,8.2-4.3,12.5-5.9c2-0.8,2.3,1.1,2.7,2.2
			c0.4,1.1,2,2.6,0,3.5c-4.3,2-8.6,3.8-12.8,6C74.9,74.1,74.7,74.1,74.4,74.2z"/>
		<path class="st6" d="M158.7,96.1c0-0.8-0.2-1.6-0.9-2.1c0.1-0.3,0.4-0.7,0.3-1c-1.4-3.8,1.5-4,3.9-4.5c2.4-0.6,4.8-1,7.1-1.7
			c1.9-0.5,3.2-0.3,3.4,2c0.1,1,0.3,2,0.6,2.9c0.3,1.2-0.2,1.7-1.2,2c-3.8,0.9-7.6,1.7-11.3,2.6C159.8,96.4,159.3,96.2,158.7,96.1z"
			/>
		<path class="st6" d="M289.4,49.4c0.3-3.8,0.7-4.3,4.3-3.7c3.8,0.6,7.5,1.4,11.2,2c1.6,0.3,2.1,1,1.7,2.5c-0.3,1-0.4,2.1-0.8,3.2
			c-0.2,0.7-0.6,1.1-1.6,0.9c-4.3-1-8.7-1.8-13-2.7C289.7,51.3,289,50.7,289.4,49.4z"/>
		<path class="st6" d="M72.1,74.7c0.1,1.1-0.5,1.3-1.1,1.6c-3.5,2-7.1,4-10.6,6.1c-1.3,0.8-2,0.4-2.6-0.8c-2.4-5-3.2-3.3,1.6-6.3
			c2.4-1.5,4.9-2.7,7.3-4.1c1.9-1.1,3.3-1.2,4.2,1.2C71.3,73.3,71.8,74.1,72.1,74.7z"/>
		<path class="st6" d="M85.3,59.1c0.2,1.5-0.7,1.5-1.3,1.8c-3.2,1.5-6.4,3-9.6,4.5c-1.4,0.7-2.4,0.5-2.9-1.1
			c-0.3-0.9-0.7-1.9-1.2-2.7c-0.6-1.1-0.3-1.9,0.8-2.4c3.3-1.6,6.7-3.1,10-4.7c1.3-0.6,2-0.2,2.5,1.1C84.2,56.9,84.9,58.2,85.3,59.1
			z"/>
		<path class="st6" d="M365.6,114.8c-0.1,2.6-2.9,4.5-5.3,3.5c-3.1-1.2-6.2-2.5-9.3-3.6c-1.9-0.7-2.3-1.5-1.1-3.3
			c2.3-3.3,2.1-3.4,5.7-1.9c2.8,1.2,5.6,2.4,8.5,3.6C364.9,113.4,365.6,113.8,365.6,114.8z"/>
		<path class="st6" d="M205.1,103.8c0.3,1.6-0.2,2.1-1.9,2.3c-3.3,0.5-6.6,0.8-9.9,1.3c-0.9,0.1-1.4,0-1.7-0.8
			c-1-3.1,1.6-6.8,4.8-7.2c1.7-0.2,3.4-0.3,5.1-0.6c2.3-0.5,3.4,0.2,3.3,2.7C204.8,102.1,205,103,205.1,103.8z"/>
		<path class="st6" d="M395.1,93.7c0.1,2.3-2.3,4.2-4.2,3.1c-3.3-1.8-6.5-3.8-9.8-5.7c-3.2-1.9,0-3.3,0.4-4.9
			c0.4-1.7,1.6-0.9,2.6-0.4c3.4,2.1,6.8,4.2,10.2,6.2C394.7,92.5,395.2,92.9,395.1,93.7z"/>
		<path class="st6" d="M67.6,97.2c-2.1-0.1-1.9-2.2-2.9-3.3c-0.7-0.8-0.3-1.7,0.6-2.2c3.3-1.9,6.6-4,10-5.7c2.8-1.4,2.5,1.9,3.6,2.9
			c0.8,0.8,0.5,1.9-0.8,2.5c-3.2,1.7-6.3,3.5-9.5,5.3C68.4,97,68,97.1,67.6,97.2z"/>
		<path class="st6" d="M357.8,120.4c-0.7,1.4-1.4,3.3-2.3,5c-0.3,0.5-1,0.3-1.5,0c-3.1-1.3-6.1-2.7-9.2-4c-1.2-0.5-1.4-1-0.6-2
			c0.8-1.1,1.5-2.2,2.4-3.3c0.4-0.5,1-1,1.9-0.7c3.1,0.9,5.9,2.3,8.8,3.6C357.7,119.2,357.9,119.5,357.8,120.4z"/>
		<path class="st6" d="M299.5,97.3c-3.3-0.9-6.8-1.7-10.3-2.7c-0.3-0.1-0.8-0.3-0.8-0.6c-0.2-1.9,0.4-3.6,1.2-5.2
			c0.5-1,1.8-0.5,2.7-0.3c2.8,0.6,5.6,1.4,8.4,2c1.6,0.3,2.3,1.1,1.5,2.6C301.6,94.6,302.5,97.1,299.5,97.3z"/>
		<path class="st6" d="M176.2,82.9c0,0.7-0.5,0.9-1,1c-3.2,0.7-6.4,1.4-9.5,2.1c-1.2,0.3-1.7-0.3-2-1.3c-0.4-1.3-0.6-2.7-1-4
			s0.1-1.9,1.3-2.1c2.7-0.5,5.3-1.1,8-1.6c0.4-0.1,1,0,1.3,0.2C174.6,78.9,175.5,80.8,176.2,82.9z"/>
		<path class="st6" d="M191.5,82.9c2.1-0.3,2.3,0.6,2.2,2.5c-0.3,3.2-1.3,5.1-4.9,4.8c-0.8-0.1-1.7,0.1-2.4,0.4
			c-3.4,1.5-4.7-0.5-6-3.3c-0.8-1.9-0.8-2.8,1.4-3.1C185.1,83.9,188.3,83.4,191.5,82.9z"/>
		<path class="st6" d="M275.7,91.9c-2.3-0.4-4.6-0.8-6.9-1.2c-1.5-0.3-3.1-5.4-2.1-6.4c0.4-0.5,1-0.2,1.5-0.1
			c3.7,0.5,7.3,1.2,11,1.7c1.7,0.2,1.7,1.2,0.8,2.2C278.7,89.3,278.9,92.4,275.7,91.9z"/>
		<path class="st6" d="M404.6,76.2c-1.3-0.8-2.4-1.7-3.7-2.4c-5.1-3-5.1-3.1-2-8.2c0.6-1,1.2-1.4,2.3-0.7c0.9,0.6,1.9,1,2.8,1.6
			c1.5,1,4.2,1.5,4.1,3c-0.1,2-1.8,4-2.9,6C405.2,75.8,404.9,76,404.6,76.2z"/>
		<path class="st6" d="M279.2,84.1c-0.6-0.1-1.3-0.1-1.9-0.2c-2.3-0.2-3.3-1.1-2.6-3.8c1.4-5.4,1.3-5.4,6.7-4.4c5,0.9,5,0.9,2.5,5.4
			c-0.5,0.9-1.1,1.9-1.6,2.8C281.3,84.8,280.3,84.7,279.2,84.1z"/>
		<path class="st6" d="M120.1,107.8c0.3,2.1-0.4,2.9-1.6,3.4c-0.3,0.1-0.7,0.2-1,0.3c-5.2,2.2-5.6,2-8.5-2.8c-0.6-1.1-0.5-1.5,0.6-2
			c2.8-1.2,5.6-2.5,8.4-3.7c1.2-0.5,1.7,0,1.8,1.1C119.9,105.5,120,107,120.1,107.8z"/>
		<path class="st6" d="M256.5,103.5c0.1-4.5,0.1-4.5,4.2-3.8c0.4,0.1,0.9,0.1,1.3,0.2c5.8,0.8,5.1,0,5.6,6.2
			c0.1,1.4-0.4,1.6-1.5,1.4c-2.2-0.3-4.4-0.7-6.7-1C257.4,106.3,255.1,106.3,256.5,103.5z"/>
		<path class="st6" d="M103.6,158.9c-1.7-0.1-1.8-1.4-2.4-2.2c-2.1-3.3-2.1-3.3,1.4-5c1.6-0.8,3.3-1.5,4.8-2.5
			c1.3-0.8,2.2-0.7,2.8,0.7c0.5,1,1,1.9,1.5,2.9c0.3,0.6,0.6,1.3-0.1,1.7C109,156.1,106.2,157.5,103.6,158.9z"/>
		<path class="st6" d="M314.8,76.2c0.9-1.9,0-2.7-1.7-3.1c-5.3-1.3-10.7-2.6-16-3.9c-0.3-0.1-0.6-0.3-1-0.4l0,0
			c-2.6-0.7-4,0.5-4.9,2.8c-0.2,0.6-0.6,1.1-1,1.6c-1.1,1.5-0.7,2.3,1.1,2.7c6.4,1.2,12.6,3,18.9,4.7c1.3,0.4,2.8,0.6,3.7-1
			C314,78.4,314.3,77.3,314.8,76.2z"/>
		<path class="st6" d="M334.8,80.1c-0.3-0.1-0.6-0.3-1-0.5l0,0l0,0c-4.8-1.5-9.6-2.9-14.3-4.6c-1.9-0.7-2.6-0.3-3,1.6
			c-0.3,1.6-0.9,3.1-1.4,4.7l0,0c1.3,1.6,3.4,1.5,5.1,2.1c5.5,2,11.1,3.9,16.6,5.8c1.6,0.6,2.5,0.4,2.6-1.7
			C339.7,82.3,339.7,82.3,334.8,80.1z"/>
		<path class="st6" d="M62.8,70.4c0.3,1-0.2,1.3-0.6,1.6c-0.9,0.5-1.9,1-2.9,1.6c-5.4,3.1-4.3,3-7.4-2.4c-0.6-1-0.4-1.6,0.7-2.1
			c1.3-0.7,2.4-1.6,3.8-2.1c1.3-0.5,2.5-2.3,3.8-1.2C61.6,66.8,62.2,68.9,62.8,70.4z"/>
		<path class="st6" d="M285.9,74.7c-0.6-0.2-1.2-0.4-1.8-0.5c-4.9-0.7-4.9-0.7-3.9-5.3c0.4-1.9,1.2-2.6,3.1-2c2,0.6,4,1,6.1,0.9
			c0.7,0,1.3,0.1,1.4,0.9c0.2,1.2-2.9,5.8-4.1,6C286.4,74.8,286.1,74.7,285.9,74.7z"/>
		<path class="st6" d="M266.3,73.3c2.4,0.4,4.4,0.7,6.4,0.9c0.5,0.1,1,0.3,1,0.8c-0.2,2.5,0.1,5.3-1.3,7.4c-1,1.4-3,0-4.6-0.1
			c-0.9-0.1-1.8-0.3-1.9-1.6c-0.2-1.8-0.5-3.6-0.9-5.4C264.6,73.7,265.1,73.1,266.3,73.3z"/>
		<path class="st6" d="M359.2,100.4c1.5,0.7,3.3,1.5,5,2.5c0.5,0.3,0.4,0.9,0.2,1.5c-1.8,5.7-2.4,6-7.8,3.9
			c-3.5-1.4-3.6-1.5-1.1-4.4C356.5,102.6,356.8,100.6,359.2,100.4z"/>
		<path class="st6" d="M340.7,103.4c3,1.2,6,2.5,9,3.7c0.2,0.1,0.4,0.4,0.4,0.7c0.3,1.9-3.7,5-5.4,4.4c-0.7-0.3-1.3-0.7-2-1
			c-3.5-1.5-4.2-3-3.1-6.8C339.8,104,339.7,103.3,340.7,103.4z"/>
		<path class="st6" d="M185.5,79.7c-0.2,0.8,0.7,2.4-1,2.6c-2.2,0.2-4.5,1.8-6.5-0.1c-1.1-1.1-1.6-2.8-2.3-4.3
			c-0.4-0.9-0.2-1.5,1-1.6s2.5-0.6,3.7-0.8C184.9,74.6,185.4,75,185.5,79.7z"/>
		<path class="st6" d="M347.3,173.5c-2.7-1.3-5.7-2.3-8-4.1c-1.3-1.1,0.5-3,1.1-4.5c0.5-1.2,1.3-0.8,2.2-0.4
			c2.2,1.1,4.3,2.2,6.5,3.4c0.8,0.4,1.7,1,1,2.1C349.4,171.3,348.8,172.8,347.3,173.5z"/>
		<path class="st6" d="M144.9,78c-0.2-0.5-0.6-0.9-0.7-1.5c-0.4-1.9-1.4-2.1-3.1-1.6c-6.9,1.8-13.5,4.4-20.3,6.3l0,0l0,0
			c-2.8,1.4-0.9,3.7-1,5.5c-0.1,3.1,0.2,3.2,3.1,2.2c6.4-2.3,12.7-4.7,19.3-6.3C145,82,145.8,80.7,144.9,78L144.9,78z"/>
		<path class="st6" d="M108.3,124.8c-1.9-0.8-2.2-2.7-3.1-4.2c-0.8-1.3,0.2-1.8,1.1-2.2c0.6-0.3,1.1-0.6,1.7-0.9
			c3.8-2,5.5-1.4,7.4,2.5c0.3,0.5,0.7,1,0,1.3C113.1,122.5,110.8,123.6,108.3,124.8z"/>
		<path class="st6" d="M177.3,66.4c4.3,0.2,2.4,3.6,3,5.5c0.6,1.6-1.6,2.7-5.2,2.7c-0.9,0-4.4-4.9-3.8-6
			C172.6,66.3,175.4,67.2,177.3,66.4z"/>
		<path class="st6" d="M119.3,98.7c0,1.8-3.2,4.1-5.1,3.9c-0.7,0-3.2-4.9-3.2-6.2c0-0.9,5.1-4.1,6.6-3.5
			C120.3,94.1,118,97.2,119.3,98.7z"/>
		<path class="st6" d="M268.7,72c-3.9-0.2-5.3-2.1-5.1-6.8c0-1.1,0.5-1.8,1.4-1.3c2.2,1.2,6.3-1.2,6.7,2.8
			C272.2,71.1,271.1,72.1,268.7,72z"/>
		<path class="st6" d="M191.8,72.1c-3,0.1-3.5,0-3-5c0.3-3.7,4.3-1.6,6.5-2.6c0.9-0.4,1.6,0,1.7,1.3C197.1,70.5,195.9,72,191.8,72.1
			z"/>
		<path class="st6" d="M189.4,81.6c-1.1,0.3-1.6,0.1-1.9-1.4c-0.2-1.2-0.4-2.5-0.5-3.7c-0.1-1.6,0.5-2.4,2.2-2.3
			c0.5,0,0.9-0.1,1.4,0c1.6,0.3,4.2-2.1,4.7,0.7c0.8,4.1-1.2,6.2-4.9,6.7C190,81.5,189.8,81.6,189.4,81.6z"/>
		<path class="st6" d="M356.3,99.8c-1.7,1.9-2.6,4.4-4.7,5.7c-1.5,0.9-2.9-0.9-4.4-1.3c-0.7-0.2-0.9-0.8-0.4-1.5
			c0.3-0.5,0.4-1.2,0.7-1.8c0.6-1.5,0.7-4,2.2-4.1c1.9-0.1,3.8,1.2,5.7,2C355.8,98.9,356,99.4,356.3,99.8z"/>
		<path class="st6" d="M262.6,35.8c0.3-1.4-0.9-4.3,2.2-3.5c2,0.5,5.6-1.8,5.8,2.1c0.3,5-0.3,5.6-2.8,5.3
			C261.7,38.8,262.3,39.5,262.6,35.8z"/>
		<path class="st6" d="M340.9,88.8c0.1-0.8,0.3-1.6,0.4-2.4c0.5-3.7,0.5-3.7,3.8-2.3c1.4,0.6,3.6,1,3.6,2.4c0,2-0.8,4.2-2.3,5.6
			c-1.3,1.2-2.7-0.5-4.1-0.8C340.9,91.1,340.7,90,340.9,88.8z"/>
		<path class="st6" d="M374.2,71.7c0,1-2.7,5.2-3.3,5.2c-1.3,0-6.2-3.1-5.9-3.8c0.8-1.8,0.5-4.4,3-5
			C369.4,67.7,374.3,70.9,374.2,71.7z"/>
		<path class="st6" d="M87.1,107.6c1.8-1.9,4.2-2.4,6.1-3.6c0.1,0,0.2-0.1,0.3-0.1c2.2,0.7,2.2,3,3.4,4.4c0.5,0.6,1,1.7-0.1,2.4
			c-1.3,0.8-2.8,1.3-4.1,2c-0.8,0.4-1.1-0.1-1.2-0.5C90.7,110.1,88.5,109.3,87.1,107.6z"/>
		<path class="st6" d="M340,100.1c0.1-1.1,0.2-1.9,0.4-2.7c0.2-1.5-0.5-3.9,0.9-4.2c1.8-0.3,3.9,0.9,5.7,2c1,0.7,0.6,1.6,0.3,2.4
			c-0.4,1.1-0.9,2.2-1.3,3.2s-0.5,2.5-2.3,1.8C342.1,102.1,340,102.2,340,100.1z"/>
		<path class="st6" d="M203,85.3c0.2,3.4,0,3.5-5.6,3.7c-0.9,0-2.5,1.2-2.6-1.1c-0.3-4.5,1-5.7,5.7-6.1
			C203.7,81.6,202.9,83.7,203,85.3z"/>
		<path class="st6" d="M116.5,163.3c1.4,0.5,1.5,2,2.1,3.2c0.4,0.9,0.3,1.8-0.8,2.2c-2,0.9-3.9,1.9-5.9,2.7c-2.6,1-2.4-1.8-3.4-2.8
			c-1.1-1.2,0.3-1.6,1.1-2c2-1.1,4-2,6-3C115.8,163.5,116.1,163.5,116.5,163.3z"/>
		<path class="st6" d="M268.7,52.3c0,3.5-0.3,3.8-3.8,3.3c-0.4-0.1-0.7,0-1.1-0.1c-3.5-0.2-4.7-2.5-3.2-5.8c0.3-0.7,0.9-0.9,1.5-0.8
			c1.7,0.2,3.4,0.4,5.1,0.6C269,49.8,268.7,51.2,268.7,52.3z"/>
		<path class="st6" d="M111.6,102.8c0,1.1-2.9,3-4.4,3c-0.5,0-4.7-5-4.4-5.5c1.2-2.3,3.8-2.1,5.7-3.1
			C109.2,96.8,111.5,101,111.6,102.8z"/>
		<path class="st6" d="M276.8,109.2c-1.7-0.6-4.6,0.5-5.7-1.9c-0.7-1.7,3-5.7,4.6-5.1c1.5,0.5,4.1-0.6,4.3,2.1
			C280.3,107.4,279.1,109.3,276.8,109.2z"/>
		<path class="st6" d="M198.6,35.9c0.1,3.6-0.1,3.7-5,3.8c-3.7,0.1-2.6-2.7-2.6-4.4c-0.1-4.3,3.5-2.3,5.5-2.7
			C199.6,32,198.3,34.7,198.6,35.9z"/>
		<path class="st6" d="M141.6,85.8c-1.1,1.7-0.2,3.7-0.1,5.6c0.1,2.2-2.4,1.6-3.7,2.3c-1.1,0.6-1.6-0.3-1.8-1.4
			c-0.1-0.4-0.4-0.8-0.4-1.3c-0.2-1.5-2.2-3-1-4.2c1.6-1.5,4.1-1.6,6.3-2.2C141.5,84.6,141.7,85.1,141.6,85.8z"/>
		<path class="st6" d="M101.4,98.2c-0.5,0.1-0.7-0.3-1-0.7c-0.5-0.7-1.1-1.4-1.7-2.1C95.9,91.9,96,92,100,90
			c1.6-0.8,2.7-0.8,3.3,1.1c0.3,0.8,0.7,1.4,1.1,2.1C105.9,95.9,104.4,98.3,101.4,98.2z"/>
		<path class="st6" d="M118.2,88.2c0.1,2.3-1.4,3.8-3.6,4c-1.2,0.1-3.2-3.4-3.4-5.9c-0.1-1.1,3.6-3.7,5.3-3.1
			C119,84,117.5,86.7,118.2,88.2z"/>
		<path class="st6" d="M102.5,120.2c0.7,0.1,3.2,4.2,3,5.2c-0.1,0.6-4.4,3.1-5.4,3.1c-0.6,0-3.2-4.1-3.2-5
			C96.9,122.7,101.2,120.1,102.5,120.2z"/>
		<path class="st6" d="M358.2,56.3c0,1.6-2.4,5.8-3.3,5.8c-1.5,0.1-4.5-1.8-4.5-2.9c0-1.1,2.4-5.7,3-5.7
			C354.8,53.5,358.2,55.5,358.2,56.3z"/>
		<path class="st6" d="M105,106.3c-1,1.8-3,1.7-4.4,2.6c-0.8,0.5-1.4,0.2-1.8-0.5c-0.7-1.1-1.5-2.2-2-3.4c-0.5-1.2-1.1-2.5,0.8-3.3
			c1.6-0.7,3.1-1.5,4.4,0.4C103,103.6,104,104.9,105,106.3z"/>
		<path class="st6" d="M265,87.2c0,1.2,0.9,3.1-1,2.7c-2.1-0.5-5.3,1-6-1.9c-0.4-1.4-0.9-4.4,1.6-5.1C263,81.9,264.5,83.5,265,87.2z
			"/>
		<path class="st6" d="M192.3,51.6c1.4-2.6,4.1-1.9,6.1-2c3.5-0.2,2.2,3.5,2,4.4c-0.7,2.9-3.8,1.7-5.7,1.9
			C191.9,56.1,193.4,53.1,192.3,51.6z"/>
		<path class="st6" d="M158.5,87.5c-1.2,0.4-1.4-0.1-1.7-0.8c-0.6-1.7-1-3.4-2.7-4.5c-0.8-0.5-0.3-1.1,0.4-1.3
			c0.3-0.1,0.7-0.2,1-0.3c5.2-1.4,6.4-0.6,6.4,4.8C162.1,88.2,159.4,86.9,158.5,87.5z"/>
		<path class="st6" d="M359.5,95.8c-1,1-1.7,2.1-3.6,1.5c-2.6-0.9-3-1.4-1.9-4c0.4-0.9,0.8-1.8,1.2-2.7c0.3-0.6,0.7-1.1,1.4-1
			c1.8,0.3,3.4,1.2,4.8,2.3c0.6,0.4-0.2,0.9-0.2,1.4C360.7,94.1,360.5,95.2,359.5,95.8z"/>
		<path class="st6" d="M319.2,85.1c7.3,1.7,6.5,0.8,4,7.8c-0.3,0.9-0.4,2.4-2.1,1.9c-1.2-0.4-2.9-0.3-2.6-2.3
			C319.2,90,318.6,87.5,319.2,85.1z"/>
		<path class="st6" d="M294.4,44.1c-0.9-0.9-3.8,0.6-3.4-1.8c0.3-2-0.9-5.4,2.5-5.9c1.1-0.2,3.9-0.8,4,1.9
			C297.5,42.1,296.3,44.1,294.4,44.1z"/>
		<path class="st6" d="M87.9,77.3c-0.7,0-3.2-4-3-5.1c0.5-2.2,2.5-2.3,4.2-2.7c1-0.2,3.4,3.8,3.3,5.1C92.3,75.3,89,77.3,87.9,77.3z"
			/>
		<path class="st6" d="M279.7,92.6c0.6-1.2,1.1-2.5,1.6-3.7c1-2.4,2.9-2.3,4.9-1.6c2.2,0.7,0.9,2.3,0.9,3.6c0,2.6-1,3.6-3.7,2.6
			C282.3,93.1,281.1,92.9,279.7,92.6z"/>
		<path class="st6" d="M108.3,59.9c-1,1.3-2.7,1.7-4.4,2.2c-0.6,0.2-3-4.7-2.7-5.5c0.8-1.8,2.7-2,4.3-2.4
			C106.4,54,108.4,58,108.3,59.9z"/>
		<path class="st6" d="M396.3,91.1c-0.9,0.1-4.3-2.3-4.3-3c0-0.6,3-5.2,3.5-5.3c0.9-0.1,4,2.3,4,3.2C399.5,86.9,396.9,91,396.3,91.1
			z"/>
		<path class="st6" d="M351.7,72.2c-1.1,1.9-0.7,4.7-3.1,5c-1.4,0.2-4.1-0.3-3.8-2.7c0.2-1.7,0.2-4.4,2.6-4.6
			C348.8,69.8,350.9,70.6,351.7,72.2z"/>
		<path class="st6" d="M307.1,81.6c-2.1,1.7-3.1,3.7-3.6,6c-0.4,1.7-1.5,1.5-2.7,1.3c-1.5-0.3-1.5-1.3-1.1-2.5
			c0.2-0.7,0.4-1.4,0.6-2.1C301.8,79.7,302,79.6,307.1,81.6z"/>
		<path class="st6" d="M372.1,106.9c-2.2,0.8-3.4,2.3-4.3,4.3c-0.4,0.8-1,1.6-2.2,0.9c-1-0.6-2.3-1-1.7-2.6c0.6-1.6,1.4-3.1,2.2-4.7
			c0.4-0.8,1.1-0.7,1.9-0.4C369.4,105.1,370.7,105.8,372.1,106.9z"/>
		<path class="st6" d="M293.7,56.2c-0.7,1.1,0.7,4.3-2.8,3.8c-1.3-0.2-3.3,0.3-3-2.4c0.4-3.8,0.8-4.5,3.2-4.3
			C292.5,53.4,294.4,53.2,293.7,56.2z"/>
		<path class="st6" d="M63.9,90.6c-0.9,0-3.8-4-3.7-5.2c0.2-1.9,2-2,3.4-2.6c0.6-0.3,4.1,4.4,3.7,5.2C66.6,89.4,64.9,89.8,63.9,90.6
			z"/>
		<path class="st6" d="M166.2,43.7c-3.2-0.1-2.3-2.8-2.6-4.4c-0.6-3,2.3-2.8,3.6-2.6c2.5,0.4,1.8,3.1,2.2,4.8
			C169.9,44,167.5,43.1,166.2,43.7z"/>
		<path class="st6" d="M180.5,91.5c-0.3,0.1-0.5,0.2-0.8,0.3c-4.6,1.4-4.8,1.3-5.8-3.5c-0.2-1.1-0.5-2.2,1.1-2.6
			c1.2-0.3,2.5-0.8,3.2,0.9C179,88.1,180,89.6,180.5,91.5z"/>
		<path class="st6" d="M225.5,71.5c-1.4,2.1-2.5,3.8-2,6.1c0.3,1.2-0.5,1.6-1.6,1.5c-1-0.1-2.4,0.4-2.5-1.3
			c-0.1-1.7-0.1-3.4-0.1-5.2c0-0.9,0.5-1.3,1.4-1.2C222.1,71.5,223.5,71.5,225.5,71.5z"/>
		<path class="st6" d="M146.1,107.8c-0.2,2.2-1.8,2.4-3.3,2.5c-1.2,0.1-3.2-3.1-2.8-4.9c0.4-2,2.6-2.2,3.8-2
			C146.2,103.8,145.2,106.5,146.1,107.8z"/>
		<path class="st6" d="M160.7,104.7c-0.6-0.9-0.8-2-0.9-3c0.9-0.5,0.4-1.3,0.3-1.9c-0.3-2.1,1.4-2,2.6-2.3c1.3-0.4,1.9,0.3,1.9,1.5
			c0,0.3,0.1,0.5,0.2,0.8c1.3,4.1,0.7,4.7-3.8,4.2C160.5,103.9,160.9,104.5,160.7,104.7z"/>
		<path class="st6" d="M170,53.3c2.7,0.3,2,2.4,2.2,3.9c0.5,2.9-2.2,2.3-3.5,2.4c-3.1,0.2-2.1-2.8-2.3-4.1
			C166.2,53,168.9,54.2,170,53.3z"/>
		<path class="st6" d="M111.1,70.1c2.2,0.6,2.3,2.7,2.4,4.1c0.1,2.3-2.4,2.4-3.8,2.3c-2-0.1-2.2-2.5-2.2-3.9
			C107.5,70.6,110,71.1,111.1,70.1z"/>
		<path class="st6" d="M121.4,103.4c-0.2-1.2,0.3-1.9,1.4-2.2c1.3-0.4,1.8,0.3,2.1,1.4c0.4,1.2,0.8,2.4,1.4,3.5
			c0.5,1.2,0.3,1.7-0.9,2.2c-3.1,1.3-3.1,1.4-3.5-1.9C121.7,105.3,121.5,104.3,121.4,103.4z"/>
		<path class="st6" d="M316.7,103.9c0.9,0.7,2.7,0.2,3,2c0.2,1.4-1.9,5.6-2.6,5.4c-1.1-0.3-2.6-0.3-2.9-1.9
			C313.9,108.1,315.9,103.9,316.7,103.9z"/>
		<path class="st6" d="M295.5,103.2c0.9-1.3-0.4-4.2,2.5-4.6c1-0.1,3,0.2,2.4,2.1c-0.6,1.7,0.6,4.6-2.5,4.8
			C296.7,105.6,295.2,105.4,295.5,103.2z"/>
		<path class="st6" d="M238,73c-0.5-0.7-1.3-1.6,0.5-1.6c1.3,0,2.6-0.3,3.9,0.4c0.5,2.2,0.3,4.5,0.1,6.7c-1.4,1.7-2.2,1.5-3.3-0.8
			C239,76.1,238.6,74.5,238,73z"/>
		<path class="st6" d="M344.5,77.6c-3.3-1.5-6.6-2.8-10-4c-8.6-3.3-17.4-6.2-26.4-8.2l0,0l0,0c-4.5-1.1-9-2.1-13.4-3.2l0,0l0,0
			c-1.2,0-2.3-0.1-3.5-0.4c-0.9-0.2-2.2-0.7-2.7,0.2c-0.5,0.8,0,1.9,0.3,2.9c0.4,1.4,1.6,1.4,2.6,1.5c2,0.2,3.9,0.9,5.8,1.3l0,0l0,0
			c5,0.6,9.8,2,14.6,3.3c5.8,1.5,11.7,3.1,17.2,5.4l0,0l0,0c0.4,0.1,0.9,0.2,1.3,0.3c4.2,1.5,8.3,3,12.5,4.6c2,0.8,3.3-0.6,3.9-1.9
			C347.5,77.7,345.3,78,344.5,77.6z"/>
		<path class="st6" d="M318.4,59.8c-6.6-1.9-13.3-3.6-20-5.1c-1.2-0.3-2.7-0.7-2.7,1.1s-2.5,4,0.7,5.3c4.8,0.8,9.5,1.7,14.1,3.3l0,0
			l0,0c2.1,0.5,4.2,1.1,6.3,1.5c2.7,0.5,2.4-1.9,2.9-3.3C320.2,61.2,320.3,60.3,318.4,59.8z"/>
		<path class="st6" d="M172.2,61.6c-0.3-1.6-1.9-0.5-2.9-0.3c-1.7,0.3-3.4,0.6-5.1,0.9c-16.1,3-31.7,7.4-47,13.3
			c-2.4,0.9-5,1.4-7,3.3c2.9,3.7,3.2,3.7,7.5,1.9c0.7-0.3,1.4-0.4,2.1-0.6l0,0c9.8-3.7,19.8-7.1,30.1-9.3l0,0l0,0
			c4.5-1.5,9.1-2.2,13.7-3.2l0,0l0,0c2.2-0.5,4.4-1,6.6-1.6C172.5,65.4,172.4,63.2,172.2,61.6z"/>
		<path class="st6" d="M223.7,92.3c0,0.8,0.2,1.7,0,2.4c-0.3,1.2-1.5,1.2-2.4,1.3c-1.2,0.1-0.8-0.9-0.9-1.6
			c-0.1-1.1-0.2-2.2-0.3-3.2c-0.1-1.3,0.1-2.3,1.8-2.3c1.8,0,1.9,1,1.8,2.3C223.7,91.6,223.7,91.9,223.7,92.3L223.7,92.3z"/>
		<path class="st6" d="M337.7,105.7c-0.6,1.1,1.1,3.7-2.2,3c-1.5-0.3-2.3-1.1-1.6-2.7c0.1-0.2,0.2-0.5,0.3-0.8
			c0.5-1.2,0.4-3.4,2.3-3.1C338.8,102.3,337.4,104.4,337.7,105.7z"/>
		<path class="st6" d="M242.2,92.7c0,0.7,0.1,1.5,0,2.2c-0.1,0.8-0.5,1.3-1.4,1.3c-0.8-0.1-1.4-0.4-1.5-1.2
			c-0.1-1.2-0.1-2.3-0.1-3.5c0-1,0-1.9,1.5-1.9s1.6,0.8,1.6,1.9C242.3,91.8,242.3,92.2,242.2,92.7L242.2,92.7z"/>
		<path class="st6" d="M267.7,94.1c0.1-0.7-0.6-1.9,0.9-1.7c1,0.1,2.6-0.1,2.7,1.6c0.1,1.6-0.3,3.1-0.9,4.5
			c-0.2,0.4-0.6,0.8-1.1,0.7c-0.7-0.1-1.1-0.7-1.2-1.3C267.9,96.6,267.8,95.4,267.7,94.1z"/>
		<path class="st6" d="M384.9,67.1c-1.1-0.6-2.2-1.2-3.4-1.8l0,0c-2.9-1.2-5.9-2.4-8.8-3.8c-0.9-0.4-1.8-0.7-2.8-0.5
			c0.1,0.7-0.5,1.1-0.7,1.7c-1.5,3.1-1.4,3.3,1.7,4.7c4.2,2,8.3,4,12.5,6.1c0.9,0.4,1.7,1.1,2.6,0C388.8,70.6,388.5,68.9,384.9,67.1
			z"/>
		<path class="st6" d="M388.1,58c-3.3-1.5-6.5-3.1-9.8-4.5c-4.2-1.9-4.3-1.9-6.1,2.4c-0.4,1-1.8,2.2-0.2,3.5l0,0l0,0
			c3.3,1.2,6.5,2.7,9.6,4.4l0,0l0,0c1.2,0.5,2.4,1.1,3.7,1.6c0.6,0.2,1.4,0.8,1.9-0.3c0.7-1.8,1.5-3.6,2.1-5.5
			C389.5,58.7,388.7,58.3,388.1,58z"/>
		<path class="st6" d="M192,93.8c-0.6,1.1,0.6,4.4-1.9,4.3c-2.1-0.1-1.2-3.1-1.4-4.8c-0.2-1.8,1.5-1.4,2.5-1.6
			C192.5,91.5,192.2,92.5,192,93.8z"/>
		<path class="st6" d="M97.6,85.4c-0.7-1.7-2-0.4-3-0.2c-0.9,0.2-1.7,0.7-2.5,1l0,0c-2.6,1.3-5.3,2.6-7.9,3.9l0,0
			c-4.8,2.7-9.6,5.3-14.4,8c-0.6,0.3-1.5,0.6-1.4,1.4c0.1,0.9,1.1,0.7,1.7,0.9c2.3,0.9,4.3,0.3,6.4-0.9c2.4-1.4,5-2.5,7.5-3.8
			c4.2-2.1,8.4-4.1,12.6-6.2C98.4,88.6,98.2,86.8,97.6,85.4z"/>
		<path class="st6" d="M95.1,79.8c-0.4-0.6-0.6-1.3-1-1.9c-0.4-0.7-0.7-1.1-1.7-0.6c-4.3,2.1-8.8,3.8-12.8,6.5
			c-0.7,0.5-1.1,0.9-0.6,1.7c0.8,1.4,1.3,3.1,2.7,4.1c3-1.5,5.9-3.2,9.1-4.3l0,0l0,0c0.8-0.4,1.6-0.9,2.4-1.2
			C95.6,83.3,96.8,82.2,95.1,79.8z"/>
		<path class="st6" d="M361.8,122c-0.9,1.4-1.8,3.3-3,4.9c-0.4,0.5-1.6,0.1-1.4-0.8c0.4-1.9,1.1-3.8,2.2-5.4
			c0.3-0.4,0.8-0.4,1.2-0.1C361.3,120.7,361.9,120.9,361.8,122z"/>
		<path class="st6" d="M381.9,102.4c-0.6-0.5-1.3-0.9-2-1.3c-2.4-1.3-4.8-2.6-7.3-3.9l0,0c-2.4-1.2-4.9-2.4-7.3-3.7
			c-1-0.5-1.8-0.8-2.5,0.2c-0.8,1-2,1.7-2.2,3.1c-1,1-1.3,1.9,0.4,2.6c2.1,0.9,4.1,1.9,6.1,2.8c4.3,1.9,8.1,4.6,13,5
			c2.3,0.2,2.6-1.3,3.3-2.5C384.2,103.2,382.6,103,381.9,102.4z"/>
		<path class="st6" d="M388.9,97.5c-1.6-0.9-3.2-1.7-4.8-2.6c-6.6-3.9-13.5-7-20.3-10.4c-0.8-0.4-1.9-1.1-2.6,0.1
			c-1,1.7,0.3,4.9,2.1,5.9c3.4,1.8,6.8,3.7,10.2,5.5l0,0c2.9,1.2,5.7,2.4,8.1,4.4l0,0c2.6,1.8,5,1.7,7.5-0.4
			C390.5,98.8,390.2,98.2,388.9,97.5z"/>
		<g>
			<path class="st6" d="M355.3,127.8c-3.6-1.5-7.1-3-10.7-4.5c-0.8-0.3-1.6-0.7-2.4-0.4c-0.9,0.2-1.4,1-1.9,1.8
				c-0.3,0.6-0.6,1.2-1,1.7c-0.2,0.2-0.5,0.4-0.6,0.7c-0.1,0.3,0,0.6,0.2,0.9s0.6,0.4,0.9,0.6c3.8,1.7,7.5,3.3,11.3,5
				c1,0.4,2,0.9,3,0.6c1.2-0.4,1.9-1.6,2.4-2.8c0.3-0.7,0.6-1.5,0.3-2.2C356.7,128.4,356,128.1,355.3,127.8z"/>
		</g>
		<path class="st6" d="M272.4,97.8c0.7-1.4-0.5-3.8,2-4.4c0.6-0.1,1.9,0,1.6,1.2c-0.5,1.8-1.4,3.7-3,4.7
			C272.2,99.7,272.5,98.4,272.4,97.8z"/>
		<path class="st6" d="M338.9,119.1c-0.7-2-0.3-3.8-0.1-5.7c0.1-0.8,0.4-1.6,1.6-1.2c1.1,0.3,1.5,1.2,1,2.1
			C340.5,115.7,340.3,117.6,338.9,119.1z"/>
		<path class="st6" d="M187.1,98.9c-1.7-1.5-2.5-2.8-3-4.5c-0.2-0.6-0.9-1.5,0.4-1.6c0.7-0.1,1.8-0.6,2.2,0.8
			C187.2,95.2,187.3,96.7,187.1,98.9z"/>
		<path class="st6" d="M118.5,120.2c-1.8-1.1-2.6-2.7-3.7-4c-0.4-0.5-1.1-1,0.2-1.6c0.9-0.4,1.8-0.5,2,0.4
			C117.4,116.7,118.8,118,118.5,120.2z"/>
		<path class="st6" d="M215.3,117.9c-7.4,0.1-14.6,1.4-21.9,2.4c-1.7,0.3-4.3-0.6-5.4,1.9l0,0l0,0c0.3,1.9,0.5,3.7,0.8,5.6l0,0
			c0.8,0,1.6,0.1,2.4,0c7.2-0.8,14.4-1.9,21.7-2.3c4.9-0.3,4.8-0.3,4.8-5.2C217.8,118.5,217.3,117.8,215.3,117.9z"/>
		<path class="st6" d="M120.7,118.9c-1.1-1.7-2-3-2.2-4.7c-0.1-0.8,0-1.5,0.9-1.6c1-0.2,0.9,0.6,1,1.2
			C120.9,115.3,121.1,116.9,120.7,118.9z"/>
		<path class="st6" d="M189.8,104.5c-0.9-1.2-2.4-2.2-1.8-3.7c0.2-0.6,1.9-0.8,2.4-0.3C191.5,101.8,190.2,103.1,189.8,104.5z"/>
		<path class="st6" d="M341.4,119.2c0.5-1.4,1-2.8,1.5-4.2c0.3-0.7,0.8-1.6,1.8-1c0.9,0.6,0.3,1.3-0.1,1.8c-0.9,1.2-1.8,2.4-2.8,3.6
			C341.7,119.3,341.5,119.2,341.4,119.2z"/>
		<path class="st6" d="M271.8,102.1c-0.4,1.2-0.8,2.6-1.8,2.6c-1,0.1-0.9-1.4-1-2.2c-0.2-1,0.3-1.7,1.4-1.4
			C270.8,101.2,271.8,101.2,271.8,102.1z"/>
		<path class="st6" d="M121,151.9c-0.7,0.6-1.5,0.9-2.4,1.1l0,0l0,0c-4.1,2.1-8.2,4.3-12.3,6.3c-1.6,0.8-2.7,1.6-1.3,3.7
			c1.2,1.7,1.8,3.5,4.5,2.1c4.7-2.4,9.5-4.5,14.2-6.8c0.5-0.2,1-0.5,1.1-1.1C125,155.9,122.4,152.2,121,151.9z"/>
		<path class="st6" d="M134.3,141.6c-0.8-1.2-0.3-4.1-3.3-2.9c-6.3,2.3-12.4,5.2-18.4,8c-0.8,0.4-1.3,0.9-1.1,1.9
			c0.6,3.6,2.6,4.8,5.8,3.2c0.2-0.1,0.5-0.2,0.7-0.3l0,0l0,0c0.6-0.8,1.5-0.8,2.4-1.1l0,0l0,0c4.3-1.9,8.5-3.9,12.9-5.7
			C135,143.9,135.3,142.9,134.3,141.6z"/>
		<path class="st6" d="M121.4,123.9c-1.1-0.5-1.8-1-1.7-2.1c0.1-0.6,0.7-0.6,1.1-0.5C121.9,121.8,121.3,122.8,121.4,123.9z"/>
		<path class="st6" d="M345.7,150.4L345.7,150.4c1.4-2.1,1.4-3.7-1.4-4.8c-2.4-0.9-4.7-2.3-7-3.5c-2.9-0.6-5.5-2-8.1-3.3l0,0
			c-1.2-0.1-2.6-2-3.3-0.7c-1,1.7-2.6,3.6-1.4,5.9c0.6,1.1,1.9,0.7,2.6,1.5c3,1.2,5.9,2.5,8.8,3.8c2.8,1.2,5.2,3.2,8.3,3.7
			C344.7,152.1,344.8,151.1,345.7,150.4z"/>
		<path class="st6" d="M357.7,152.3c-1.7-0.7-3.2-1.6-4.8-2.5c-4.2-2.2-4.2-2.2-6.1,1.9c-0.2,0.4-0.4,0.9-0.6,1.3l0,0l0,0
			c-0.2,1,0.1,1.6,1.1,2.1c1.2,0.6,2.3,1.4,3.4,2.1c4.3,2.9,5.1,2.7,7.7-1.6C359.4,154.3,359.6,153.1,357.7,152.3z"/>
		<path class="st6" d="M338.8,123.4c-0.7,0-0.8-0.4-0.7-0.9c0.1-0.6-0.1-1.3,0.9-1.3c0.5,0,0.9,0.2,0.8,0.8
			C339.7,122.7,339.3,123.2,338.8,123.4z"/>
		<path class="st6" d="M186,122.2L186,122.2L186,122.2c-0.5-0.4-1-0.3-1.5-0.2c-2.5,0.4-4.9,1.4-7.5,1.5c-5.2,1.4-10.4,2.9-15.6,4.3
			l0,0l0,0c-0.5,1.7,0.2,3.2,0.6,4.7c0.4,1.4,1.2,1.7,2.5,1.3c7.1-2.1,14.5-3.3,21.7-4.9c0.6-0.1,0.9-0.5,1.1-1
			C186.8,126,186.4,124.1,186,122.2z"/>
		<path class="st6" d="M365.1,143.9c-5.9-3.6-11.4-7.9-17.9-10.6l0,0l0,0c-3.4-0.9-6.5-2.4-9.7-3.9l0,0l0,0
			c-6.9-2.6-13.8-5.5-20.9-7.8c-13.7-4.5-27.5-8.4-41.7-10.9c-13.3-2.3-26.8-3.7-40.4-3.8c-5.1-0.3-10.2-0.3-15.2,0
			c-2.9,0.1-5.8,0.1-8.7,0.4c-7.8,0.8-15.7,1.6-23.5,2.8c-7.9,1.3-15.7,2.8-23.4,5c-10.9,3.1-21.6,6.6-32.2,10.5
			c-0.9,0.3-1.8,0.4-2.6,1c-1.7,0.5-3.2,1.4-4.8,2.1c-10.5,4.2-20.5,9.4-30.6,14.5c-1.3,0.6-2.2,1.5-2.5,3c-0.4,2.2,0.1,4.2,1.8,5.7
			c2,1.8,4,0.6,5.8-0.3c9.2-4.2,18.4-8.5,27.5-12.8c1.4-0.6,3-0.9,4.3-1.8c9.4-4,19-7.3,28.7-10.3c0.3-0.3,0.7-0.4,1.1-0.3
			c5.2-1.6,10.5-3.1,15.9-4l0,0l0,0c7.9-2,15.8-3.5,23.8-4.5c2.3-0.3,4.6-0.4,6.9-1c4.9-0.4,9.8-1,14.6-1.1
			c20.8-0.7,41.2,1.4,61.5,6.2c16.3,3.9,32.1,9.1,47.4,15.7l0,0l0,0c2.8,1.2,5.8,2.1,8.4,3.8l0,0l0,0c7.8,3.2,15.4,7.1,22.9,10.9
			c1.6,0.8,2.7,0.6,4-0.3C368.9,149.8,368.7,146.1,365.1,143.9z"/>
	</g>
</g>
<g class="st7">
	<path class="st8" d="M505.2,306.7v-44.9H522c3.8,0,7.1,0.6,9.8,1.8c2.7,1.2,4.8,3,6.3,5.3c1.5,2.3,2.2,5.1,2.2,8.3
		c0,3.2-0.7,5.9-2.2,8.2s-3.6,4.1-6.3,5.3c-2.7,1.2-6,1.9-9.8,1.9h-14.2l2.1-2.2v16.4H505.2z M510,290.6l-2.1-2.3h14.1
		c4.5,0,7.9-1,10.2-2.9c2.3-1.9,3.5-4.7,3.5-8.2c0-3.6-1.2-6.4-3.5-8.3c-2.3-2-5.7-3-10.2-3h-14.1l2.1-2.2V290.6z"/>
	<path class="st8" d="M564.6,306.7v-44.9h16.8c3.8,0,7.1,0.6,9.8,1.8c2.7,1.2,4.8,3,6.3,5.3c1.5,2.3,2.2,5.1,2.2,8.3
		c0,3.2-0.7,5.9-2.2,8.2s-3.6,4-6.3,5.3c-2.7,1.2-6,1.8-9.8,1.8h-14.2l2.1-2.2v16.4H564.6z M569.4,290.6l-2.1-2.2h14.1
		c4.5,0,7.9-1,10.2-3c2.3-2,3.5-4.7,3.5-8.3c0-3.6-1.2-6.4-3.5-8.3c-2.3-2-5.7-3-10.2-3h-14.1l2.1-2.2V290.6z M595.3,306.7
		l-11.5-16.3h5.1l11.6,16.3H595.3z"/>
	<path class="st8" d="M629.7,302.6h27v4.1H625v-44.9h30.8v4.1h-26V302.6z M629.2,281.8H653v4h-23.7V281.8z"/>
	<path class="st8" d="M686.6,306.7h-4.7v-44.9h30.8v4.1h-26V306.7z M686.1,283.5h23.7v4.1h-23.7V283.5z"/>
	<path class="st8" d="M741.2,302.6h27v4.1h-31.8v-44.9h30.8v4.1h-26V302.6z M740.7,281.8h23.7v4h-23.7V281.8z"/>
	<path class="st8" d="M793.4,306.7v-44.9h4.7v44.9H793.4z"/>
	<path class="st8" d="M835.5,306.7v-40.8h-15.8v-4.1H856v4.1h-15.8v40.8H835.5z"/>
	<path class="st8" d="M894.8,307.1c-5.7,0-10.2-1.6-13.5-4.9c-3.3-3.3-4.9-8.2-4.9-14.6v-25.7h4.7v25.5c0,5.3,1.2,9.2,3.6,11.7
		c2.4,2.5,5.8,3.8,10.1,3.8c4.4,0,7.8-1.3,10.2-3.8c2.4-2.5,3.6-6.4,3.6-11.7v-25.5h4.6v25.7c0,6.5-1.6,11.3-4.9,14.6
		C905,305.4,900.5,307.1,894.8,307.1z"/>
	<path class="st8" d="M941.5,306.7v-44.9h16.8c3.8,0,7.1,0.6,9.8,1.8c2.7,1.2,4.8,3,6.3,5.3c1.5,2.3,2.2,5.1,2.2,8.3
		c0,3.2-0.7,5.9-2.2,8.2s-3.6,4-6.3,5.3c-2.7,1.2-6,1.8-9.8,1.8h-14.2l2.1-2.2v16.4H941.5z M946.2,290.6l-2.1-2.2h14
		c4.5,0,7.9-1,10.2-3c2.3-2,3.5-4.7,3.5-8.3c0-3.6-1.2-6.4-3.5-8.3c-2.3-2-5.7-3-10.2-3h-14l2.1-2.2V290.6z M972.1,306.7l-11.5-16.3
		h5.1l11.6,16.3H972.1z"/>
	<path class="st8" d="M994.7,306.7l20.5-44.9h4.7l20.5,44.9h-5l-18.9-42.1h1.9l-18.9,42.1H994.7z M1002.7,294.7l1.4-3.8h26.1
		l1.4,3.8H1002.7z"/>
	<path class="st8" d="M1092.6,306.7v-44.9h18.3c4.8,0,9,1,12.6,2.9c3.6,1.9,6.4,4.5,8.4,7.9c2,3.4,3,7.3,3,11.7s-1,8.3-3,11.7
		c-2,3.4-4.8,6-8.4,7.9s-7.8,2.9-12.6,2.9H1092.6z M1097.4,302.6h13.3c4,0,7.4-0.8,10.4-2.3c2.9-1.6,5.2-3.7,6.8-6.5
		c1.6-2.8,2.4-5.9,2.4-9.5c0-3.6-0.8-6.8-2.4-9.6c-1.6-2.7-3.9-4.9-6.8-6.4c-2.9-1.6-6.4-2.3-10.4-2.3h-13.3V302.6z"/>
	<path class="st8" d="M1164.3,302.6h27v4.1h-31.8v-44.9h30.8v4.1h-26V302.6z M1163.8,281.8h23.7v4h-23.7V281.8z"/>
</g>
<g class="st7">
	<path class="st9" d="M498.8,455.3V351.7h28.7l52.7,63.1h-13.3v-63.1h34v103.6h-28.7l-52.7-63.1h13.3v63.1H498.8z"/>
	<path class="st9" d="M599.6,455.3l45.3-103.6h34.3l45.3,103.6h-36.1l-33.5-87h13.6l-33.5,87H599.6z M626.5,437.3l8.9-25.2h47.7
		l8.9,25.2H626.5z"/>
	<path class="st9" d="M723.2,455.3V351.7h28.7l52.7,63.1h-13.3v-63.1h34v103.6h-28.7l-52.7-63.1h13.3v63.1H723.2z"/>
	<path class="st9" d="M884.8,457.7c-15.9,0-28.3-4.3-37.2-12.9c-8.9-8.6-13.3-20.6-13.3-36.1v-57h34.9v56c0,7.9,1.4,13.5,4.3,16.8
		c2.9,3.3,6.7,5,11.5,5c4.9,0,8.8-1.7,11.6-5c2.8-3.3,4.2-8.9,4.2-16.8v-56h34.3v57c0,15.5-4.4,27.5-13.3,36.1
		C913.1,453.4,900.7,457.7,884.8,457.7z"/>
	<path class="st9" d="M998.6,457.7c-8.4,0-16.2-1.3-23.3-4c-7.2-2.7-13.3-6.4-18.6-11.3c-5.2-4.9-9.3-10.6-12.2-17.2
		c-2.9-6.6-4.4-13.8-4.4-21.6c0-7.9,1.5-15.1,4.4-21.7c2.9-6.6,7-12.3,12.2-17.2c5.2-4.9,11.4-8.7,18.6-11.3c7.2-2.7,14.9-4,23.3-4
		c8.5,0,16.3,1.3,23.4,4c7.1,2.7,13.3,6.4,18.5,11.3c5.2,4.9,9.3,10.6,12.2,17.2c2.9,6.6,4.4,13.8,4.4,21.7c0,7.8-1.5,15-4.4,21.6
		c-2.9,6.6-7,12.4-12.2,17.2c-5.2,4.9-11.4,8.7-18.5,11.3C1014.9,456.4,1007.1,457.7,998.6,457.7z M998.6,429.4
		c3.3,0,6.3-0.6,9.1-1.8c2.8-1.2,5.3-2.9,7.4-5.1c2.1-2.2,3.8-4.9,5-8.1c1.2-3.2,1.8-6.8,1.8-10.9c0-4-0.6-7.7-1.8-10.9
		c-1.2-3.2-2.8-5.9-5-8.1c-2.1-2.2-4.6-3.9-7.4-5.1c-2.8-1.2-5.8-1.8-9.1-1.8c-3.3,0-6.3,0.6-9.1,1.8c-2.8,1.2-5.3,2.9-7.4,5.1
		c-2.1,2.2-3.8,4.9-5,8.1c-1.2,3.2-1.8,6.8-1.8,10.9c0,4,0.6,7.7,1.8,10.9c1.2,3.2,2.8,5.9,5,8.1c2.1,2.2,4.6,3.9,7.4,5.1
		C992.3,428.8,995.4,429.4,998.6,429.4z M1032.5,481.5c-4.8,0-9.3-0.5-13.5-1.4c-4.1-0.9-8.2-2.5-12.1-4.7c-3.9-2.2-8-5.2-12.2-9
		c-4.2-3.8-9-8.5-14.2-14.1l36.1-8.9c2.4,3.7,4.4,6.5,6.1,8.4c1.7,2,3.3,3.4,5,4.1c1.6,0.8,3.5,1.2,5.6,1.2c5.1,0,9.9-2.2,14.4-6.7
		l15.1,17.8C1055.3,477.1,1045.3,481.5,1032.5,481.5z"/>
	<path class="st9" d="M1112.5,457.7c-15.9,0-28.3-4.3-37.2-12.9c-8.9-8.6-13.3-20.6-13.3-36.1v-57h34.9v56c0,7.9,1.4,13.5,4.3,16.8
		c2.9,3.3,6.7,5,11.5,5c4.9,0,8.8-1.7,11.6-5c2.8-3.3,4.2-8.9,4.2-16.8v-56h34.3v57c0,15.5-4.4,27.5-13.3,36.1
		C1140.7,453.4,1128.4,457.7,1112.5,457.7z"/>
	<path class="st9" d="M1206.3,429h51.8v26.3H1172V351.7h84.2v26.3h-49.9V429z M1203.9,390.2h46.2v25.2h-46.2V390.2z"/>
</g>
</svg>
